<svg width="88" height="90" viewBox="0 0 88 90" fill="none" xmlns="http://www.w3.org/2000/svg">
<path fill-rule="evenodd" clip-rule="evenodd" d="M81.2795 5.19963C81.2795 5.24612 81.2454 5.19963 81.2454 5.19963L81.2795 5.10003C81.2795 5.15315 81.3147 5.19963 81.2795 5.19963Z" fill="white"/>
<path fill-rule="evenodd" clip-rule="evenodd" d="M79.6074 8.33152C79.6415 8.57204 79.57 8.862 79.4259 8.91217C79.2785 9.00587 79.1723 9.00587 79.0651 8.9557C78.921 8.81257 78.8511 8.61557 78.9232 8.42522C78.96 8.22823 79.1047 8.03492 79.2834 8.03788C79.4281 8.03788 79.5744 8.1847 79.6074 8.33152Z" fill="white"/>
<path fill-rule="evenodd" clip-rule="evenodd" d="M26.6409 28.2266C25.7758 28.6574 25.2632 29.8128 25.0795 30.924C24.8952 32.0358 24.9986 33.1971 25.1026 34.3614C25.3847 36.1033 25.7032 37.8453 26.6717 39.2567C26.9577 39.644 27.4258 39.7473 27.8234 39.5533C28.1848 39.3165 28.5472 38.8354 28.55 38.2548C28.4801 37.7708 28.3377 37.2838 28.121 36.8463C27.6562 36.166 27.4417 35.2947 27.3741 34.4241C27.3416 33.4096 27.5974 32.5412 27.9257 31.72C28.182 30.8524 28.4383 29.6409 28.0451 28.7201C27.7239 28.1395 27.1486 27.986 26.6409 28.2266ZM28.5753 28.4825C28.7546 28.9193 28.8591 29.4033 28.8222 29.9375C28.7474 30.7085 28.4911 31.433 28.2722 32.1575C28.0539 32.7345 27.8724 33.3151 27.8674 33.9932C27.7937 34.8143 28.0071 35.5883 28.4004 36.2221C28.7936 36.9495 29.1522 37.7737 29.0059 38.7417C28.8563 39.5628 28.2398 40.2837 27.6276 40.474C26.6151 40.612 25.8638 39.3474 25.3259 38.3292C25.0767 37.7456 24.8633 37.1148 24.6862 36.4375C24.26 34.742 24.0878 32.8068 24.3095 30.921L24.53 30.0533C24.8589 29.0381 25.4403 27.8797 26.2708 27.5492C26.6673 27.4053 27.1018 27.3116 27.5325 27.412C27.9653 27.5116 28.2887 27.9956 28.5753 28.4825Z" fill="white"/>
<path fill-rule="evenodd" clip-rule="evenodd" d="M8.14497 52.2861C8.14057 53.1575 7.88647 53.8783 7.73742 54.7024C7.73742 55.1864 7.73522 55.6203 7.80507 56.0578L7.80287 56.879C7.65327 57.7001 7.57957 58.618 7.35792 59.4384C7.35792 59.4886 7.32327 59.4886 7.28807 59.4384L7.25122 59.1986C7.32822 58.3745 7.33042 57.4559 7.33427 56.5853C7.30017 56.1515 7.37442 55.7177 7.37717 55.2337L7.52567 53.7817C7.67252 53.2512 7.78197 52.72 7.89362 52.1393C7.96567 51.946 8.14497 52.1423 8.14497 52.2861Z" fill="white"/>
<path fill-rule="evenodd" clip-rule="evenodd" d="M10.2693 52.9308C10.1252 52.9279 10.0179 53.1684 9.98051 53.3152C9.87051 53.7491 10.0135 54.1858 10.2275 54.526C10.4788 54.6234 10.7324 54.433 10.9139 54.1925C11.0602 53.8516 10.7346 53.8022 10.6268 53.6081L10.2693 52.9308ZM11.3214 51.6786C11.1047 51.7258 10.8858 52.0128 10.8137 52.35C10.8836 52.6931 10.7741 53.124 11.0975 53.2708C11.2422 53.3711 11.3863 53.2737 11.5304 53.1306C11.7119 52.8436 11.7487 52.4563 11.6789 52.0689C11.6448 51.8727 11.5001 51.6786 11.3214 51.6786ZM12.0056 51.6816C12.2564 52.0718 12.2894 52.6997 12.1079 53.1335C11.9264 53.4737 11.7075 53.9082 11.3835 53.8551C11.2746 54.1451 11.3093 54.4823 11.0931 54.6756C10.7301 54.9633 10.3341 55.2038 9.90129 55.0068C9.57789 54.8098 9.39859 54.3266 9.40134 53.8426C9.43764 53.2619 9.65709 52.8244 9.94584 52.4902L10.2714 52.3471L10.3088 51.9597C10.4925 51.4787 10.8533 51.1917 11.2515 51.1946C11.5397 51.1946 11.8263 51.3414 12.0056 51.6816Z" fill="white"/>
<path fill-rule="evenodd" clip-rule="evenodd" d="M9.22029 53.8884C9.21589 55.2902 8.81274 56.4987 8.62904 57.8031L8.44039 59.883C8.43819 60.2202 8.40079 60.5574 8.29189 60.8473C8.11204 60.8975 8.03999 60.7005 7.96794 60.5537L7.93329 60.3132C7.93769 59.202 7.97729 58.1374 8.19839 57.1229C8.34524 56.3519 8.70769 55.6739 8.78524 54.8527C8.85729 54.469 8.82429 53.9821 9.00304 53.6478C9.11304 53.5512 9.18564 53.6951 9.22029 53.8884Z" fill="white"/>
<path fill-rule="evenodd" clip-rule="evenodd" d="M10.8735 55.4013C10.796 56.753 10.4308 57.9615 10.1008 59.1663C9.88131 59.941 9.94896 60.8588 10.0909 61.6357C10.1266 61.8298 10.1981 62.0231 10.1607 62.2164C10.054 62.2636 9.90936 62.2636 9.87306 62.1168C9.62391 61.2462 9.41216 60.3719 9.52381 59.3567C9.74436 57.9084 10.5083 56.8002 10.6942 55.3017C10.6942 55.1077 10.8735 55.3017 10.8735 55.4013Z" fill="white"/>
<path fill-rule="evenodd" clip-rule="evenodd" d="M32.5035 57.1003C32.3198 57.2907 32.0316 57.5814 32.0316 57.965C32.1355 58.3052 32.2774 58.8423 32.6036 58.9389C32.9644 58.9891 33.2179 58.6017 33.3994 58.2683C33.5463 57.8839 33.2949 57.5408 33.2597 57.1999C33.0804 56.91 32.7548 57.0531 32.5035 57.1003ZM31.8286 54.0503C31.6097 54.3838 31.5723 54.9652 31.717 55.3518C31.8215 55.6454 32.003 55.9361 32.2175 55.9826C32.5057 56.0357 32.6899 55.6985 32.8346 55.4078C33.0161 55.0212 32.9457 54.49 32.7669 54.1499C32.5871 53.7131 32.0475 53.7131 31.8286 54.0503ZM33.2344 54.3963C33.4484 54.9304 33.3373 55.6549 33.0832 56.0858C33.0458 56.3293 33.2993 56.3293 33.4071 56.4791C33.6926 56.9631 33.9071 57.5932 33.796 58.2712C33.758 58.6084 33.6838 58.992 33.4319 59.1861C33.1063 59.4259 32.674 59.7136 32.3126 59.42C31.882 59.1765 31.668 58.5929 31.6328 58.0152C31.5289 57.5312 31.6378 56.997 31.9639 56.6134C31.9639 56.4201 31.7472 56.4164 31.6774 56.2231C31.3166 55.7361 31.0674 55.1053 31.2143 54.3808C31.2885 54.0436 31.398 53.7536 31.6147 53.5633C31.8682 53.3722 32.1944 53.2755 32.4804 53.3722C32.8412 53.5227 33.1272 53.913 33.2344 54.3963Z" fill="white"/>
<path fill-rule="evenodd" clip-rule="evenodd" d="M34.6583 59.3405C35.1242 60.0679 35.3007 60.9422 35.6219 61.7162L35.8364 62.4909C36.0498 63.0273 36.2643 63.6079 36.6603 63.9517C36.9463 64.3391 37.3066 64.7294 37.5211 65.1662C37.5211 65.31 37.4842 65.4561 37.4463 65.5505C37.0514 65.5505 36.8 65.1595 36.5107 64.8194C35.8661 63.9923 35.3634 63.0678 35.0802 62.0032C34.8327 60.8891 34.5494 59.8245 34.0115 58.9L34.0467 58.7532C34.3003 58.8535 34.479 59.097 34.6583 59.3405Z" fill="white"/>
<path fill-rule="evenodd" clip-rule="evenodd" d="M74.174 60.9735C74.7487 61.8006 75.0347 62.7686 74.9929 63.9299C74.9561 64.3172 74.7746 64.7009 74.8785 65.1384C75.0182 65.9625 75.4489 66.5934 75.808 67.2242C75.808 67.3208 75.808 67.3703 75.7723 67.4175C75.1953 66.8833 74.5881 66.1529 74.3736 65.2321C74.2697 64.5548 74.5953 64.0236 74.4902 63.3463C74.3505 62.3753 74.3181 61.4103 73.7433 60.6799C73.7433 60.5832 73.7802 60.5331 73.85 60.4866C73.9947 60.5862 74.0667 60.8267 74.174 60.9735Z" fill="white"/>
<path fill-rule="evenodd" clip-rule="evenodd" d="M33.4557 62.5244C34.1025 63.305 34.7477 64.0826 35.285 64.9562C35.6436 65.6372 36.0737 66.1743 36.6138 66.5609C37.0439 66.7114 37.4399 67.1482 37.8359 67.4883C37.9058 67.6351 38.0152 67.8284 37.9426 68.0225C37.7265 67.8757 37.5824 67.6816 37.3651 67.582C36.7189 67.2389 35.9973 67.1386 35.4594 66.4584C34.9919 65.9212 34.6707 65.2439 34.4215 64.6102C34.0629 63.8827 33.5597 63.2046 33.167 62.5214C33.2044 62.3274 33.3837 62.4277 33.4557 62.5244Z" fill="white"/>
<path fill-rule="evenodd" clip-rule="evenodd" d="M8.64239 63.3189C8.49829 63.4126 8.49829 63.6561 8.49554 63.8465C8.49554 64.0435 8.64019 64.09 8.71224 64.1903C8.92674 64.2397 9.21494 64.2397 9.36179 64.0464C9.46849 63.9527 9.39864 63.8059 9.36179 63.662C9.25454 63.3219 8.89594 63.1751 8.64239 63.3189ZM9.79739 63.3256C9.86889 63.5219 10.0487 63.7152 9.97394 64.0059C9.86504 64.3895 9.53834 64.6301 9.24959 64.6773C8.81674 64.8175 8.45594 64.574 8.20734 64.1372C8.06269 63.7963 8.13749 63.3131 8.24694 62.9759C8.46584 62.6387 8.82609 62.6918 9.14949 62.7413C9.40139 62.7915 9.61754 63.0814 9.79739 63.3256Z" fill="white"/>
<path fill-rule="evenodd" clip-rule="evenodd" d="M72.8269 64.2046C72.7175 64.3485 72.7175 64.5418 72.7527 64.7853C72.7873 64.9254 72.8594 65.1254 73.004 65.1726C73.1107 65.1726 73.2202 65.1756 73.2944 65.0287C73.3648 64.8849 73.4391 64.6414 73.367 64.4481C73.2972 64.1109 73.0062 64.0113 72.8269 64.2046ZM73.6904 64.5475C73.7251 64.8382 73.7229 65.1282 73.6156 65.3687C73.4341 65.5628 73.2526 65.7059 73.0387 65.7029C72.7851 65.6063 72.4964 65.3628 72.4639 64.9755C72.3572 64.6855 72.4639 64.3948 72.5382 64.1513C72.6498 63.9108 72.8643 63.8171 73.0458 63.7706C73.4413 63.6769 73.5507 64.2104 73.6904 64.5475Z" fill="white"/>
<path fill-rule="evenodd" clip-rule="evenodd" d="M50.1077 64.6235C50.0731 64.867 49.819 64.9607 49.7447 65.2042C49.3795 66.3625 49.6628 67.7171 50.2727 68.5449L50.5967 69.0319C50.452 69.1256 50.2353 69.0754 50.1259 69.0754C49.6584 69.0725 49.5187 68.345 49.302 67.9082C49.0528 66.9402 49.1304 65.7287 49.5654 64.9135C49.7117 64.7674 49.8564 64.5239 50.0731 64.577L50.1077 64.6235Z" fill="white"/>
<path fill-rule="evenodd" clip-rule="evenodd" d="M56.255 68.9758C56.183 69.0724 56.0757 69.1661 56.0383 69.31C56.1109 69.3594 56.2204 69.3594 56.2897 69.313C56.2897 69.2163 56.3667 69.0223 56.255 68.9758ZM42.1931 68.5853L42.1211 68.7321C42.049 68.9224 41.8697 69.0191 41.8301 69.2596C42.0116 69.3098 42.3004 69.4064 42.4093 69.1659C42.3724 68.9756 42.3372 68.7321 42.1931 68.5853ZM14.1415 68.2917C14.1041 68.2452 14.032 68.1449 13.9968 68.2415C13.96 68.5794 13.7763 68.8664 13.597 69.1099C13.5244 69.1564 13.5596 69.2538 13.6316 69.2538C13.7763 69.2567 13.9204 69.3032 14.0304 69.1129C14.1019 68.8694 14.1739 68.5824 14.1415 68.2917ZM12.1588 68.1798C12.0493 68.2764 11.9047 68.4203 11.9047 68.5671C11.9399 68.7102 12.0097 68.9043 12.1192 68.9537C12.2633 68.9537 12.4794 69.1035 12.5867 68.9102C12.6587 68.7634 12.6615 68.5701 12.6241 68.4734C12.6263 68.1325 12.3375 68.0861 12.1588 68.1798ZM80.6739 68.0792C80.6013 68.1265 80.455 68.1766 80.5271 68.3198L80.9929 69.2442C81.065 69.2944 81.1018 69.2442 81.137 69.197C81.2459 68.9071 81.3581 68.5699 81.2487 68.2298C81.0694 68.1294 80.8554 68.0829 80.6739 68.0792ZM82.512 68.0454C82.4377 68.3353 82.6544 68.4821 82.6544 68.7256C82.7265 68.9197 82.6517 69.3033 82.9058 69.3535C83.1571 69.1159 83.1571 68.6319 83.1593 68.1951C83.0917 67.8078 82.6913 67.9989 82.512 68.0454ZM56.8737 67.7709C56.767 67.8174 56.6202 67.8646 56.6576 68.0579C56.69 68.4947 56.7621 68.882 56.7599 69.3159C56.8671 69.4125 56.9766 69.3159 57.086 69.2192C57.3374 68.885 57.377 68.3043 57.2719 67.8675C57.1625 67.6735 56.9832 67.914 56.8737 67.7709ZM55.3964 67.708C55.359 67.708 55.3238 67.7582 55.3238 67.8076L55.3937 68.482L55.3194 69.2567L55.3541 69.3061C55.5686 69.2095 55.7149 68.9225 55.8243 68.679C55.8243 68.392 55.8991 68.1013 55.8265 67.8578C55.7198 67.711 55.5405 67.711 55.3964 67.708ZM41.3692 67.6115C41.3318 67.7546 41.4039 67.8048 41.4039 67.9015C41.5111 68.1449 41.3643 68.5795 41.5458 68.7256C41.7971 68.5323 41.9066 68.1486 41.9093 67.7613C41.8021 67.4211 41.5485 67.5148 41.3692 67.6115ZM13.3154 67.2212C13.1707 67.3651 12.9546 67.4145 12.9518 67.6521C13.0965 67.9457 13.2032 68.1892 13.3456 68.4791L13.4177 68.5293C13.5618 68.2888 13.5293 67.9015 13.4941 67.5613C13.4595 67.4647 13.4595 67.171 13.3154 67.2212ZM14.4324 67.2271C14.323 67.4706 14.5045 67.6646 14.5391 67.8579C14.609 68.1014 14.5369 68.4386 14.6442 68.682C14.6788 68.682 14.7162 68.6356 14.7509 68.5854C14.9351 68.2482 15.0446 67.8144 14.9373 67.3769C14.8653 67.0869 14.5765 67.1806 14.4324 67.2271ZM84.5349 67.3835C84.388 67.43 84.3534 67.624 84.2813 67.7709C84.1345 68.2017 84.6394 68.3043 84.7092 68.7381C84.7439 68.8849 84.7092 69.0753 84.8511 69.1756C85.1047 68.9853 84.998 68.4511 85.0002 68.1139C84.8583 67.8675 84.7488 67.5267 84.5349 67.3835ZM42.456 66.459C42.3466 66.459 42.2371 66.6493 42.2025 66.7932C42.1651 66.9865 42.1629 67.2772 42.2696 67.424C42.5935 67.6203 42.7024 68.0578 42.9169 68.3478C42.989 68.3013 42.989 68.108 43.0264 68.0076C43.0286 67.3805 42.8146 66.8463 42.456 66.459ZM48.4582 61.9039C48.3515 61.9541 48.242 62.0478 48.2046 62.1946C48.0605 62.4816 48.3119 62.7251 48.4213 62.9693C48.4906 63.0188 48.6353 63.0188 48.7073 62.8756C48.8514 62.6816 48.8542 62.3444 48.7843 62.1009C48.7123 61.9541 48.6028 61.9039 48.4582 61.9039ZM51.9281 59.8498C51.784 59.897 51.6399 60.0874 51.6025 60.2807C51.4557 60.6208 51.6724 61.0081 51.8143 61.2988C51.9237 61.3955 52.1008 61.4486 52.2845 61.352C52.466 61.2546 52.5007 60.9676 52.5403 60.7241C52.5403 60.4334 52.5034 60.1899 52.3588 59.9966C52.2169 59.8498 52.0728 59.8498 51.9281 59.8498ZM52.6893 58.8847C52.6151 59.0817 52.5799 59.275 52.6151 59.4661C52.7966 59.6624 52.8664 60.0497 53.1178 60.0497C53.2619 60.0527 53.4434 59.956 53.5182 59.7657C53.588 59.472 53.4456 59.2286 53.4131 58.9415C53.2316 58.6981 52.8708 58.6944 52.6893 58.8847ZM29.8022 56.2597C29.5855 56.1129 29.404 56.4028 29.2599 56.5939C29.0416 56.9311 29.2203 57.3679 29.3622 57.708C29.5069 57.9485 29.6488 58.4355 29.937 58.3418C30.1185 58.1986 30.2978 58.0548 30.3726 57.8113C30.5189 57.3775 30.1955 57.0366 30.0882 56.65L29.8022 56.2597ZM34.3056 69.4318C34.6059 69.4318 34.6433 69.3314 34.5102 69.1602C33.9376 68.3826 33.3629 67.605 32.9322 66.7314C32.5043 65.6136 31.9318 64.5955 31.3966 63.4777C30.6794 62.2633 29.9281 61.0488 29.2109 59.7879C28.8155 59.1571 28.387 58.5728 28.2105 57.8453C27.782 56.3874 28.0405 54.6049 27.7936 53.0533C27.7259 51.8418 27.298 50.8244 26.616 49.9966C26.1854 49.5598 25.7179 49.1193 25.1778 49.0197C24.0211 49.9309 22.8991 50.7462 21.5984 51.2206C20.9142 51.5046 20.0116 51.2582 19.5034 52.1731C18.9963 52.9441 18.4166 53.6649 17.7649 54.1932C16.7523 55.0077 15.5984 55.3855 14.4418 55.6695C14.1904 55.7131 13.9363 55.8068 13.7202 56.0008C13.1031 57.0123 12.5564 58.0703 12.1934 59.2316L11.9349 60.7773C11.9327 61.0179 11.8232 61.358 11.9679 61.5513C12.398 61.7985 12.866 61.9947 13.2268 62.3821C13.8016 62.869 14.1574 63.6961 14.4066 64.4708L14.5859 64.5704C15.3075 64.864 15.7381 65.7885 15.9845 66.6591C16.1638 67.4832 15.9427 68.3044 15.7238 69.0289C15.7238 69.1256 15.6804 69.3816 15.7871 69.4318H34.3056ZM63.977 49.1472C61.9128 52.0851 59.8459 55.0201 57.5981 57.7146C56.4387 59.0131 55.2804 60.3588 54.121 61.6072C54.0858 61.6544 54.0484 61.7511 54.121 61.8477C54.479 61.9481 54.842 62.0949 55.1286 62.435C55.8106 63.0216 56.2038 63.9925 56.4156 64.9605L56.9925 65.2069C57.3891 65.4039 57.6047 65.9846 57.7075 66.5188C58.103 67.0994 58.3191 67.7767 58.2053 68.5507C58.1657 68.8443 58.0469 69.1881 58.0447 69.4316H75.181L75.1134 69.3003C74.7922 68.7196 74.3269 68.3765 73.894 67.9863L73.3913 67.2086L73.1774 67.2057C72.777 67.396 72.2369 67.3923 71.9157 66.9526C71.3756 66.3247 71.3085 65.3538 71.094 64.4832C70.8476 63.7557 70.7777 62.981 70.6727 62.1569C70.5638 61.5261 70.6402 60.8023 70.4983 60.2216C70.3564 59.7841 70.2844 59.2507 70.0704 58.8633C69.0694 56.8248 68.0316 54.8357 66.9211 52.8908C66.023 51.5797 65.1292 50.2679 64.0864 49.1944L63.977 49.1472ZM18.2748 47.0838C17.7699 46.8875 17.1555 46.8344 16.6875 47.1214C15.7844 47.6961 15.3097 48.901 14.9814 50.0593C14.6882 51.3143 14.4297 52.5723 14.2812 53.9247C14.2785 54.0213 14.3533 54.118 14.4253 54.1681C15.0001 54.3179 15.5776 54.0774 16.0847 53.8398C16.6622 53.5528 17.1693 53.1219 17.7116 52.6911C18.6169 51.9732 19.306 50.7647 19.3825 49.413C19.35 48.6885 19.2081 47.961 18.7401 47.4741L18.2748 47.0838ZM43.7568 69.4317H47.3318L47.3505 69.2502C47.3505 69.0569 47.2784 68.8636 47.241 68.6201C47.0645 67.9893 47.2504 67.3149 47.3945 66.7343C47.2157 66.1536 47.0012 65.5199 47.0408 64.7983C47.043 64.4582 47.1899 64.1675 47.0826 63.8273C47.0106 63.5374 46.7966 63.3433 46.7966 63.0062C46.4056 61.5512 46.5915 59.7156 47.2108 58.4606C48.2651 56.2442 49.5356 54.1237 50.5179 51.8572C51.2439 50.268 51.6839 48.4825 52.6288 47.0372C52.7383 46.8431 52.8802 46.7 52.8802 46.5059C52.3775 46.5502 51.9804 46.8372 51.5442 46.9309C50.6807 47.3618 49.7782 47.5957 48.8751 47.7329C47.9021 47.9203 46.8918 47.9144 45.882 47.8583C45.4491 47.8546 45.0883 47.755 44.6929 47.7049L43.033 47.499C41.9533 47.3463 40.9083 47.0497 39.8259 46.9936C38.8535 46.8903 37.99 46.4469 37.0891 46.0537C37.0171 46.1001 37.0171 46.247 37.0171 46.3473C36.9775 47.215 36.8658 48.0361 36.5375 48.7105C36.4236 50.693 36.1255 52.5788 35.6157 54.2676C35.9 55.3323 35.9303 56.4936 36.07 57.6113L36.5677 59.4035C36.9263 60.3242 37.2822 61.2922 37.8921 62.0728C38.7578 62.0787 39.733 61.9887 40.4524 62.5753C40.9177 62.9154 41.2411 63.5964 41.5623 64.177C41.8516 64.374 42.1392 64.4736 42.3884 64.7643C43.215 65.6416 44.0411 66.856 43.8173 68.4047C43.8151 68.7381 43.6358 68.9816 43.7056 69.2723L43.7568 69.4317ZM55.012 46.1318L54.5049 46.469C53.7112 47.0902 53.3455 48.2013 52.8708 49.1162C52.1102 50.6088 51.4909 52.2009 50.8716 53.7961C50.1434 55.5321 49.1264 57.0712 48.3278 58.7106C48 59.6284 47.5996 60.4961 47.56 61.5578C47.5578 61.8514 47.5925 62.1414 47.7019 62.3347C47.8438 62.2882 47.7366 62.0447 47.8114 61.8979C47.9181 61.7075 48.0649 61.5142 48.2442 61.47C48.4604 61.3268 48.6793 61.4205 48.8932 61.5703C49.1798 61.8138 49.1798 62.2476 49.2122 62.6844C49.2122 62.9751 49.0681 63.3122 48.8492 63.4561C48.5957 63.5026 48.2745 63.403 48.2349 63.8398C47.8697 64.658 48.0462 65.7721 48.4054 66.4996C48.5143 66.7903 48.2954 66.9836 48.258 67.2241C48.1463 67.9988 48.2046 68.935 48.7887 69.4316H52.0821L52.0706 69.2818C51.9677 68.5108 52.1146 67.7826 52.4055 67.2056C52.1916 66.912 52.119 66.5246 52.0469 66.1875C51.9771 65.7035 52.1239 65.3663 52.3054 65.0291C52.4127 64.8823 52.5221 64.7392 52.6662 64.7856C52.6662 64.9826 52.5221 65.0291 52.4853 65.2232C52.4099 65.6068 52.5172 66.0443 52.6244 66.3845C52.6943 66.6774 52.8741 66.9179 52.9456 67.2086C52.9456 67.3052 52.801 67.4019 52.7641 67.4985C52.5826 68.1235 52.7174 68.9882 53.0061 69.4316H54.5049C54.7095 69.4006 54.7793 69.0133 54.8145 68.7698C54.9234 68.3352 54.7095 67.8984 54.8189 67.4646C54.9284 67.368 55.0725 67.2241 55.0747 67.0308C55.1099 66.7401 54.8233 66.5933 54.7166 66.4C54.5725 66.2996 54.3932 66.2996 54.2838 66.1063C54.1787 65.6695 54.1441 65.1855 53.9274 64.8454C53.7833 64.6986 53.6062 64.6019 53.4247 64.6019V64.5518C53.6062 64.3112 53.8949 64.3614 54.1463 64.461C54.5049 64.8011 54.6842 65.3825 54.8261 65.8658C55.2237 66.0628 55.5823 66.5497 55.722 67.0839L56.3342 67.427C56.4805 67.2337 56.6273 66.9931 56.7346 66.8028C56.5179 66.4125 56.2319 66.2657 55.9057 66.1661C55.5845 66.0657 55.5845 65.5352 55.5499 65.1479C55.4102 64.2271 54.726 63.5934 54.1138 63.3462C53.681 63.2466 53.2129 63.147 52.7801 63.3373C52.6382 63.3373 52.5265 63.5306 52.3846 63.5277C52.24 62.8533 52.4589 62.176 52.752 61.6448C52.9687 61.2582 53.2223 61.0177 53.4038 60.6333C53.2971 60.5868 53.1156 60.5831 53.0083 60.6768C52.8615 61.0177 52.8246 61.4013 52.5705 61.6891C52.317 61.979 51.8841 61.9289 51.635 61.7326C51.344 61.4891 51.1301 61.1018 51.0256 60.7144C50.953 60.181 51.2093 59.7966 51.4254 59.41C51.6421 59.2189 51.9331 59.1724 52.1844 59.0787C52.2218 58.8353 52.3285 58.6412 52.4754 58.4509C52.7289 58.1609 53.1244 58.1174 53.4505 58.2635C53.6645 58.4103 53.7739 58.7475 53.8438 59.0382C53.9136 59.5251 53.8042 60.0556 53.5853 60.44H53.6227L54.8888 59.1938L57.4952 56.1157C58.9104 54.3332 60.2859 52.5064 61.6659 50.6302C62.2082 49.8592 62.8253 49.0911 63.2625 48.1733C63.1905 48.0766 63.0832 47.8796 62.9369 47.8796C62.0316 49.1317 60.9817 50.2369 60.039 51.4388C58.9896 52.5942 57.8654 53.8927 56.7786 55.0946C56.09 55.8627 55.5103 56.8277 54.7513 57.4991C54.4955 57.6895 54.2068 58.0266 53.8834 57.8798C53.8834 57.6393 53.9208 57.3456 53.8856 57.0557C53.8207 55.9409 53.9692 54.8792 54.116 53.8647C54.479 52.7565 54.8096 51.5952 55.1748 50.4398C55.4333 49.0882 55.6544 47.7328 56.1642 46.528C56.2016 46.3812 56.3083 46.241 56.2385 46.0941C55.8034 46.0912 55.3728 46.0381 55.012 46.1318ZM60.8541 46.0286C60.1325 46.1193 59.4087 46.213 58.6871 46.2565C58.2191 46.2536 57.7142 46.1532 57.2835 46.2469C56.1989 47.1087 56.227 48.8477 55.9316 50.2997C55.5312 51.2146 55.3475 52.232 55.0192 53.1469C54.7634 53.8714 54.5841 54.6424 54.5418 55.4665C54.5027 55.8539 54.4675 56.2848 54.5726 56.5777C55.7688 55.4259 56.8925 53.8869 58.0145 52.5876C58.4149 52.0107 58.994 51.5296 59.4296 50.9054C60.0462 50.1374 60.7304 49.4129 61.3475 48.6448C61.6753 48.1638 62.0713 47.8266 62.327 47.2961C62.0036 46.8092 61.6824 46.472 61.359 45.985C61.1797 45.8884 60.9982 45.9784 60.8541 46.0286ZM32.7997 45.735C32.2228 45.8759 31.8224 46.6964 31.7481 47.4209C31.5243 49.1134 32.2041 50.5211 33.1374 51.5422C33.6748 52.2225 34.3243 52.5191 34.7896 53.344H34.8969C35.2621 52.2823 35.3391 51.0737 35.4881 49.8659C35.4903 49.1879 35.674 48.3667 35.4249 47.8333C34.8155 46.7185 33.9542 45.4539 32.7997 45.735ZM68.4342 44.1959C67.8198 44.6268 67.4172 45.5446 67.4145 46.5097C67.3727 48.2015 67.9078 49.6092 68.5876 50.8738C69.5534 52.7663 70.7007 54.5643 71.7039 56.4095H71.776C71.7039 55.8289 71.5642 55.3449 71.4603 54.8107C71.0665 53.2126 70.17 51.8484 69.6002 50.3964C69.3164 49.6188 68.8131 48.8913 68.9622 47.8739C69.0694 47.5367 69.3582 47.3464 69.6838 47.3493C70.44 47.5493 70.8311 48.6633 71.2617 49.4882C71.9762 51.2833 72.3997 53.2717 73.3308 54.9701C73.7615 55.8916 74.1179 56.8588 74.7273 57.6394C74.9434 57.9796 75.1579 58.3669 75.4813 58.6104C75.3394 57.7398 74.9462 57.0123 74.7713 56.141C74.3434 54.4927 73.9171 52.7972 73.4172 51.149L72.8144 49.21C72.2088 47.1243 71.0615 45.0828 69.5512 44.0115C69.1926 43.9119 68.7576 43.9554 68.4342 44.1959ZM47.7019 43.4683C47.3433 43.3687 46.9781 43.6085 46.6179 43.7022L46.5453 43.7996C46.8687 44.0925 47.3389 44.046 47.7344 44.1456C47.9159 44.1493 48.0253 43.8586 48.0974 43.7118C47.9907 43.5185 47.8114 43.5649 47.7019 43.4683ZM48.9262 43.962C48.8888 44.0114 48.8888 44.1088 48.9587 44.1553C49.501 44.3051 50.1131 44.2615 50.6923 44.1678C50.9464 43.9273 51.272 43.7834 51.5233 43.4463V43.3496C50.5878 43.1032 49.65 43.3371 48.9262 43.962ZM59.676 43.0191C59.2783 43.1623 58.9896 43.4994 58.6612 43.74C58.6266 43.8366 58.5193 43.9303 58.5892 44.0307C58.9478 44.1775 59.3482 44.0366 59.7062 44.1804C60.0324 44.2336 60.3184 44.5737 60.7144 44.4298L60.7166 44.3332C60.463 44.0897 60.2485 43.7525 60.0346 43.5061C59.8905 43.3593 59.8179 43.1187 59.676 43.0191ZM57.1531 42.5691C56.7555 42.7602 56.3578 43.191 55.9943 43.4781C55.9228 43.5275 55.7776 43.6249 55.7776 43.7186C56.1758 43.8647 56.6411 43.9178 57.0745 43.8713L57.9072 43.6868L58.3428 43.2065C58.3774 43.1564 58.4495 43.0627 58.3774 43.0125C57.9792 42.7661 57.586 42.6694 57.1531 42.5691ZM54.3767 42.2607C53.8344 42.5477 53.3642 42.9757 52.8593 43.3593C52.8571 43.4095 52.8571 43.456 52.8945 43.5061C53.5435 43.5593 54.1556 43.9023 54.8052 43.712C55.238 43.425 55.6357 42.8945 55.9987 42.4636C55.4569 42.4599 54.8816 42.5035 54.3767 42.2607ZM48.8261 41.9324C48.6446 42.0261 48.4653 42.1198 48.2838 42.0231C47.8856 42.0202 47.4902 42.1603 47.1294 42.257C47.0221 42.3042 46.8406 42.3507 46.8406 42.4946C47.4154 42.9343 48.0649 43.0346 48.7145 42.9941C49.0401 42.9468 49.2914 42.707 49.6148 42.7565C49.7595 42.6628 49.8689 42.4695 49.9432 42.2762C49.9432 42.1788 49.8337 42.1758 49.7991 42.1293C49.4729 42.1293 49.1473 42.029 48.8261 41.9324ZM44.353 41.8984C44.1017 41.8483 43.8481 41.9921 43.6336 42.0888L43.6688 42.1353L44.639 42.769C45.1071 43.0162 45.612 43.0686 46.1169 43.1188V43.0723C45.9728 42.682 45.612 42.8251 45.398 42.6318C45.0372 42.4348 44.7138 42.0452 44.353 41.8984ZM52.3616 41.3237L52.2169 41.4204C51.6746 41.6107 51.1697 41.8985 50.6995 42.2821C50.6648 42.3294 50.5532 42.3294 50.59 42.426C51.0581 42.7197 51.7071 42.7226 52.2499 42.5817C52.6828 42.4415 53.0804 42.1508 53.4786 41.8667C53.5155 41.8173 53.6227 41.7701 53.5507 41.6734L52.3616 41.3237ZM46.3407 41.0897C45.9447 41.1361 45.6191 41.2298 45.2231 41.1767L44.6439 41.3176C44.6439 41.3176 44.6087 41.3671 44.6439 41.4172C45.0047 41.5641 45.3281 41.8075 45.6889 42.0038C45.8682 42.1012 46.0844 41.9603 46.3005 42.0569L47.2036 41.5796L47.3505 41.4357L47.3131 41.3862C46.9897 41.2889 46.7009 41.0926 46.3407 41.0897ZM58.604 40.9806C58.2031 41.1739 57.8423 41.5081 57.5535 41.8918V41.942C57.9121 42.1382 58.3076 42.2386 58.7058 42.3352C58.8851 42.3352 59.1337 42.7757 59.2805 42.3382L58.604 40.9806ZM47.1013 40.4184L46.9198 40.5121C46.8824 40.5623 46.8824 40.6088 46.9198 40.6589C47.2086 40.805 47.5694 40.7615 47.8554 40.9555C47.8928 40.9555 47.9648 40.8589 47.9274 40.8117L47.1013 40.4184ZM56.0433 40.4338C55.5384 40.7178 55.0681 41.1517 54.6331 41.4859C54.6331 41.6327 54.7398 41.5826 54.8118 41.6327C55.3541 41.6357 55.9289 41.7854 56.4343 41.5486C56.7621 41.3583 57.2302 41.4077 57.5558 41.0705C57.5558 41.024 57.6284 40.9274 57.5558 40.83C57.0509 40.6802 56.4761 40.7237 56.0433 40.4338ZM50.1665 40.1962C49.5521 40.2899 49.0819 40.6743 48.5748 41.1052C48.5396 41.1546 48.5396 41.2018 48.6116 41.2483C49.1495 41.4453 49.7292 41.4047 50.3062 41.5515C50.8116 41.4578 51.2439 41.2704 51.6795 40.9333V40.8868C51.6075 40.74 51.5376 40.5459 51.3908 40.5459C50.9953 40.3961 50.5647 40.2965 50.1665 40.1962ZM53.7761 39.5942C53.4852 39.7846 53.197 39.8311 52.9434 39.975C52.7267 40.1188 52.51 40.262 52.3637 40.5025C52.6151 40.7961 53.0501 40.5556 53.3367 40.7024C53.6276 40.802 53.9136 40.8522 54.1672 40.9518C54.5978 40.6648 55.0356 40.3748 55.4657 40.0908C55.5053 39.9934 55.5752 39.8473 55.5053 39.8001L54.8189 39.7971C54.4581 39.8407 54.1001 39.7411 53.7761 39.5942ZM41.7669 39.5093C41.5507 39.4598 41.2273 39.3595 41.0458 39.5499L41.2972 39.9903C41.944 40.6713 42.6606 41.2084 43.4895 41.4076C43.5615 41.4076 43.5989 41.2645 43.5989 41.1671C43.671 41.024 43.8871 41.0705 43.8899 40.8801C43.3844 40.6337 42.8817 40.2899 42.4142 39.8029L41.7669 39.5093ZM43.3542 39.3255C43.2821 39.4222 43.1006 39.4222 43.1006 39.6155C43.5313 40.056 44.0362 40.4433 44.5741 40.6396C44.8623 40.596 45.1884 40.4994 45.4772 40.4057V40.3555C45.0113 40.0154 44.5438 39.7217 44.1478 39.285C43.8965 39.1883 43.6083 39.2783 43.3542 39.3255ZM47.1063 39.1604C46.9594 39.3035 46.7455 39.3006 46.7059 39.4939C47.2108 39.7905 47.7157 40.0841 48.3652 39.9904C48.5814 39.8938 48.7238 40.1402 48.94 39.9934C49.0494 39.8997 49.1935 39.8997 49.3008 39.7566C49.2683 39.5596 49.1215 39.6097 49.0148 39.5131C48.9075 39.4127 49.0516 39.2224 48.9818 39.0756C48.4054 38.8321 47.6491 38.9199 47.1063 39.1604ZM57.7796 38.7981L57.3489 39.0379C57.058 39.229 56.7346 39.4687 56.5157 39.7594C56.5855 39.9033 56.767 39.9033 56.8737 39.9527C57.3071 40.1025 57.8098 40.2493 58.2795 40.0619C58.103 39.6753 57.9616 39.2349 57.8164 38.801L57.7796 38.7981ZM45.6653 38.6667C45.3045 38.7102 44.9789 38.7574 44.6555 38.9005V38.9478C45.1208 39.3875 45.6631 39.6811 46.1289 40.0213C46.2356 40.0249 46.4171 40.1216 46.4892 39.9312C46.2752 39.7343 46.0217 39.6346 45.805 39.4878V39.3941C45.9865 39.054 46.2774 39.1071 46.4941 38.8666C46.5288 38.8164 46.6734 38.7699 46.6008 38.6726C46.3148 38.573 45.954 38.57 45.6653 38.6667ZM51.833 38.6602C51.6141 38.6602 51.4722 38.4639 51.2907 38.4639C50.9997 38.7509 50.6763 38.8476 50.3502 38.9413C50.2781 38.9885 50.1362 39.035 50.134 39.1818C50.7088 39.6688 51.4678 39.7219 52.1888 39.7285L52.5496 39.5382C52.7311 39.3441 53.164 39.3471 53.0578 38.8638C53.0199 38.7664 52.9126 38.7664 52.8406 38.7664C52.515 38.9073 52.119 38.807 51.833 38.6602ZM80.5012 69.4316C80.4644 69.1881 80.2383 68.9978 80.1663 68.8008C80.0942 68.5603 79.8407 68.6075 79.9149 68.367C80.0964 67.8357 80.4572 67.6926 80.818 67.5517C80.9296 67.5023 81.0716 67.5517 81.2162 67.455C81.2184 67.1651 81.1464 66.8744 81.0039 66.6309C79.9963 65.5604 78.7022 65.2601 77.6225 64.3828C77.2265 63.9925 76.9031 63.5056 76.6545 62.9751C76.5847 62.5848 76.2959 62.3413 76.2613 61.954C76.1887 61.7607 76.1166 61.5172 76.1936 61.3269C76.2283 61.2796 76.2635 61.3733 76.3355 61.3763C76.7662 62.0573 77.1242 62.8814 77.6968 63.3683C78.3089 63.8088 78.8864 64.2958 79.5684 64.492C80.3247 64.886 81.1161 65.3257 81.6909 66.2502C81.8674 66.6376 81.9395 67.0743 81.9373 67.5583L81.8256 68.136L81.7184 68.3293L81.6441 68.7661C81.6441 69.0066 81.4577 69.1881 81.4929 69.4316H82.3261C82.4378 68.8539 81.8234 68.5263 82.0445 67.9457C82.1166 67.655 82.3333 67.5111 82.5516 67.4174C82.6589 67.2241 82.4422 67.1739 82.4075 67.0271C81.907 66.5402 81.9103 65.719 81.5858 65.1354C81.5138 64.9421 81.4065 64.7982 81.4813 64.6049C81.8399 64.7517 82.0187 65.2852 82.2332 65.6725C82.3751 66.1565 82.6985 66.4531 83.0219 66.6936C83.4151 67.1806 83.5246 67.8114 83.5174 68.5352C83.59 68.8724 83.2897 69.1881 83.469 69.4316C83.8293 69.4006 84.2044 69.5843 84.3111 69.1225C84.2764 68.685 83.9904 68.2983 83.7039 68.1013C83.6665 67.714 83.8854 67.4742 84.0295 67.137V66.943C83.8529 66.459 83.4569 66.2627 83.1335 65.9219C82.7007 65.5323 82.4169 64.9015 82.1309 64.3179C81.3763 63.0061 80.1828 64.208 79.2098 63.8619C78.2044 62.9345 77.6341 61.5762 77.0615 60.2681C76.561 59.1039 76.2426 57.8422 75.9582 56.5341C75.6024 55.1795 75.4275 53.7245 75.1464 52.3198C74.8643 50.5306 74.4017 48.7857 73.9381 47.0873C73.6895 46.2159 73.3331 45.3446 73.1213 44.4208C73.4821 43.9863 73.8451 43.506 74.1735 42.9784C74.8621 41.7729 75.6233 40.568 75.9885 39.1692C75.9538 38.9759 75.8092 39.0696 75.7025 39.0223C75.5584 38.9227 75.5952 38.5856 75.4511 38.5354C75.2696 39.116 75.1954 39.7439 75.0117 40.2773C74.6828 41.5294 73.959 42.6376 73.1235 43.4528C72.6164 43.9339 71.9669 43.9774 71.3547 44.1176C71.2106 44.1678 70.9939 44.1147 70.9571 44.308C71.8552 45.2826 72.354 46.5435 72.9283 47.7114C73.4992 49.3095 73.9617 51.0079 74.3852 52.6569C74.6712 53.7216 74.9556 54.7855 75.274 55.8066L75.4533 56.4345C75.7349 57.7426 76.1656 58.9541 76.594 60.1685C76.594 60.215 76.5566 60.3116 76.5192 60.3116C76.1612 60.1154 75.9093 59.6779 75.5512 59.4816C74.5805 58.4605 73.6829 57.2925 73.0399 55.935C72.1088 54.0396 71.6132 51.9575 70.8641 50.0156C70.6122 49.4844 70.4703 48.8506 70.0749 48.4168C69.9308 48.27 69.7163 48.0737 69.5353 48.2168C69.4281 48.5075 69.4952 48.7975 69.5672 49.038C70.1749 50.3993 70.8916 51.7575 71.4994 53.1188C71.8574 54.0396 72.1066 55.1042 72.3183 56.1224C72.5653 57.7205 72.6654 59.3658 72.7325 61.0612L72.6956 61.1077C72.4421 60.8148 72.4443 60.3802 72.3392 59.9907L72.0879 59.1658C71.8739 58.5852 71.5901 58.0547 71.3734 57.4674C71.0522 56.8403 70.6216 56.2567 70.3356 55.5757C69.9071 54.6077 69.3324 53.684 68.8319 52.7595C68.2593 51.6919 67.6521 50.6243 67.2237 49.4099C66.9723 48.779 66.9025 48.1017 66.7628 47.4237C66.6561 46.843 66.6935 46.2624 66.7699 45.6817C66.7699 45.3947 66.9866 45.1513 66.9514 44.8606C66.5186 44.9543 66.1578 45.242 65.7601 45.4818C64.9665 46.0101 64.026 45.9569 63.0904 45.9975L62.8369 45.9938C62.9436 46.2344 63.1229 46.4808 63.3022 46.6748C64.131 47.5521 64.9918 48.3297 65.7458 49.3538C67.3936 51.7354 68.8995 54.2115 70.1865 56.8809C70.6518 58.0451 71.4037 59.0662 71.5808 60.4208C71.6853 60.955 71.611 61.5356 71.5742 62.0661C71.5714 62.891 71.8206 63.5683 72.1418 64.2485L72.2111 65.0697C72.2809 65.4106 72.4602 65.7972 72.7094 66.0407C72.8562 66.141 73.1076 66.1875 73.2891 66.0938C73.6499 65.9971 73.7962 65.4696 73.8682 65.0823C73.943 64.7923 73.8732 64.5016 73.9452 64.2117L74.0871 64.5518C74.229 64.9886 74.2268 65.4726 74.2246 65.9536C74.2967 66.4406 74.476 66.7807 74.7647 67.1208C75.4814 67.852 76.2167 68.5071 76.7893 69.4316H78.2765L78.288 69.3224C78.2902 68.5477 77.6412 68.3013 77.32 67.8143C77.32 67.7671 77.248 67.6705 77.32 67.6705C77.6808 67.9641 78.1137 68.0637 78.5091 68.3544C78.8325 68.5042 79.0283 69.0443 79.2076 69.4316H80.5012ZM55.4751 37.7674C55.3684 37.7179 55.3332 37.9112 55.2237 38.0079C54.7909 38.1982 54.3212 38.3392 53.923 38.7228C53.8487 38.773 53.8141 38.8696 53.8487 38.9663C54.209 39.1131 54.6072 39.0666 54.968 39.119C55.4008 39.1227 55.7616 38.7855 56.1923 39.029L56.8066 38.5044L56.8088 38.3576C56.4134 38.0175 55.9805 37.8205 55.4751 37.7674ZM39.6494 37.1248C39.5774 37.1248 39.54 37.2709 39.612 37.3646C39.898 37.8988 40.4007 38.0958 40.7247 38.5355C40.976 38.6823 41.2648 38.7296 41.5183 38.5886C41.1223 38.295 40.9084 37.811 40.6944 37.3241C40.4057 37.0806 40.0102 36.981 39.6494 37.1248ZM41.3808 36.9905C41.3087 37.0369 41.1993 36.9905 41.1641 37.0871C41.2339 37.4745 41.5579 37.7179 41.774 38.0108C42.0952 38.4484 42.4907 38.6446 42.8867 38.8416C43.1402 38.7914 43.3938 38.6513 43.6451 38.6513C43.6825 38.6513 43.7898 38.6513 43.7546 38.5546C43.3239 38.1171 42.8564 37.774 42.4978 37.2398C42.1728 37.0465 41.7762 37.0429 41.3808 36.9905ZM43.1474 36.9057C43.0753 36.9057 43.0753 37.003 43.11 37.0525L43.6853 37.6833C43.9014 37.8301 44.0807 38.0736 44.2969 38.2706C44.7297 38.0301 45.2352 38.1798 45.668 38.036L45.7379 37.9423L45.7027 37.8891C44.8766 37.4524 44.0851 36.9152 43.1474 36.9057ZM53.2086 36.6874C52.6663 37.0681 52.0888 37.3558 51.5817 37.7897V37.8361C52.1218 38.1327 52.7708 38.0863 53.3829 38.1888C53.7833 37.8524 54.214 37.5152 54.7211 37.4215C54.7211 37.3743 54.863 37.3278 54.7937 37.2304L54.2536 37.1308C53.8928 36.984 53.5342 36.8844 53.2086 36.6874ZM57.179 36.3279C56.6713 36.519 56.0944 36.5153 55.6962 36.9964C55.8755 37.2369 56.1642 37.1934 56.4156 37.3867C56.7764 37.4863 57.0976 37.9703 57.5678 37.7829C57.5348 37.2996 57.3907 36.8621 57.3209 36.3279H57.179ZM76.3262 36.4592C75.8933 36.2659 75.9258 36.9934 75.7465 37.2804C75.8141 37.5711 75.7795 37.9577 75.9214 38.1517C76.1375 38.1045 76.2123 37.7208 76.3938 37.6242C76.5753 37.3364 76.61 36.9498 76.7216 36.609C76.6853 36.5595 76.6496 36.5123 76.6496 36.5595C76.5401 36.7056 76.396 36.609 76.3262 36.4592ZM40.5893 36.0196C40.41 35.9694 40.1587 35.8226 39.9425 35.9665C39.9425 36.2063 40.0844 36.3531 40.1565 36.4999C40.4078 36.5965 40.6614 36.5028 40.9133 36.4534C40.9501 36.4062 41.0574 36.4091 40.9853 36.2631L40.5893 36.0196ZM41.5304 35.6382C41.4578 35.6382 41.4204 35.7356 41.4204 35.8322C41.6371 36.1222 41.779 36.6062 42.1745 36.5597C42.2465 36.4158 42.4654 36.4689 42.5001 36.3221C42.2141 35.982 41.8533 35.785 41.5304 35.6382ZM55.0565 34.9107C54.4422 35.1482 53.8625 35.4825 53.3224 35.9133C53.2503 35.9628 53.2481 36.0565 53.2828 36.1066C53.8229 36.4999 54.5093 36.4534 55.1935 36.4593C55.5917 36.0757 56.0267 35.8381 56.5322 35.6477V35.5511C56.0988 35.1106 55.5614 35.0575 55.0565 34.9107ZM75.6491 34.6207C75.5369 34.7638 75.395 34.9077 75.3928 35.101C75.4274 35.5385 75.4604 36.069 75.5677 36.4593L75.6045 36.4091L75.9329 35.4418L75.8256 34.8612C75.7915 34.7638 75.7536 34.6207 75.6491 34.6207ZM55.6335 34.3336H55.6687C56.0663 34.58 56.4623 34.8235 56.8226 35.1135C56.965 35.2138 57.1438 35.3105 57.3253 35.2669C57.328 34.6863 57.4397 34.1521 57.4771 33.6681C56.7901 33.615 56.1411 33.7559 55.6335 34.3336ZM77.0571 33.615C76.9125 33.8555 76.8756 34.1927 76.6589 34.3831C76.44 34.1897 76.4076 33.7057 76.1936 33.4623C76.121 33.5124 76.082 33.6556 76.0468 33.753C75.8653 34.1868 76.1865 34.5269 76.2239 34.9608C76.2211 35.1541 76.4032 35.2544 76.4004 35.4477C76.4356 35.5444 76.473 35.6882 76.5797 35.6417C76.7244 35.4477 76.7992 35.1607 76.9801 35.0168C77.2711 34.7269 77.2337 34.2429 77.2733 33.809C77.3107 33.6622 77.1688 33.2277 77.0571 33.615ZM16.1336 32.1195L16.0615 32.0229C15.9521 32.073 15.88 32.2663 15.808 32.36C15.2607 33.7589 14.7866 35.2072 14.6348 36.8031C14.3763 38.4949 14.4066 40.4309 14.3252 42.1699C14.2487 43.8152 13.8456 45.2635 13.1548 46.5657C12.1747 48.4891 10.4779 48.7201 9.06994 49.5346C8.81639 49.725 8.52764 49.9655 8.34394 50.3499C7.98094 50.9305 7.79944 51.6543 7.54314 52.3287L7.21314 53.9245C7.13614 55.1323 7.13119 56.484 7.12679 57.7921C7.08499 58.8575 6.97334 59.8683 6.82429 60.84C6.71484 61.4671 6.70989 62.1444 6.63784 62.7723C6.55864 64.5577 6.22589 66.6376 6.83364 68.2416C7.01019 68.7728 7.44084 69.2096 7.80879 69.4317H10.6875C10.8596 69.2627 11.0109 69.335 11.0835 69.141C11.0483 68.9941 11.0136 68.8975 10.941 68.8008C10.6897 68.457 10.583 68.0232 10.5131 67.5864C10.4411 67.2957 10.1919 67.1489 10.0104 67.0493C9.36309 66.4686 8.38794 66.7497 7.85059 65.8755C7.41994 65.148 7.57119 64.0833 7.60859 63.212C7.61079 62.7287 7.46889 62.2942 7.54094 61.8574C7.83189 61.957 7.79229 62.4911 7.89954 62.7818C8.07609 63.5056 7.78514 64.2803 7.99964 64.9075C8.39289 65.7847 9.11174 65.9817 9.83554 65.8909C10.3382 65.8939 10.7711 66.2812 10.9856 66.8648C11.1649 67.1083 11.4162 67.2087 11.5229 67.4986C11.6302 67.6425 11.5581 67.9332 11.7 67.9826C11.9189 67.8395 12.2071 67.7458 12.4612 67.6491L12.6427 67.3614L13.2917 66.7372C13.4012 66.6405 13.2945 66.4937 13.2219 66.3469C12.9733 65.9596 12.6471 65.6667 12.5399 65.1325C12.0768 64.1645 10.9949 64.3519 10.7458 63.1876C10.7458 63.1404 10.7832 63.0438 10.8552 63.0438C11.2881 63.4311 11.7534 63.7277 12.2583 63.8745C12.6911 64.121 13.0129 64.6544 13.1196 65.2852C13.3709 65.432 13.6575 65.6755 13.7273 66.0629C13.7642 66.4 13.9061 66.69 14.0133 66.9836C14.23 66.9371 14.3395 66.7431 14.521 66.6966C14.6651 66.6 14.9164 66.6966 14.9885 66.5063C15.0259 66.2156 14.7745 66.0688 14.6299 65.8725C14.2718 65.7257 13.839 65.435 13.7339 64.9016C13.4826 64.1741 12.8732 63.637 12.3677 63.2968C11.9024 63.0032 11.3255 62.7568 11.111 62.0293C10.9718 60.9145 11.2996 59.8528 11.4866 58.8383C11.8513 57.39 12.5773 56.1874 13.1592 54.8829C13.4127 54.3547 13.6316 53.8714 13.7411 53.3402C13.8549 52.2755 14.0392 51.2611 14.2229 50.296C14.6277 48.4604 15.6078 46.244 17.2319 46.0131C17.772 45.9658 18.2769 46.1628 18.745 46.4093C19.6453 47.046 19.9995 48.3047 20.0666 49.5626C20.1018 49.8533 19.9577 50.1433 20.0644 50.3838L20.6766 50.1462C21.8684 49.7685 23.0603 49.4409 24.1097 48.4795C24.1465 48.4294 24.1465 48.3327 24.0745 48.2855C23.4277 47.9889 22.8155 47.502 22.2408 46.9154C21.3443 45.8943 20.4115 44.7765 19.6574 43.4654C18.5096 41.7641 17.7627 39.6783 17.1929 37.5962C16.8365 36.4312 16.5895 35.1703 16.3409 33.9618L16.1336 32.1195ZM75.621 31.7639C75.4742 32.3446 75.2949 32.9252 75.0391 33.4063L75.109 33.8431C75.181 33.9869 75.1414 34.2769 75.2883 34.2769C75.4703 33.8932 75.5792 33.4565 75.7255 33.0256C75.907 32.6382 75.7283 32.2007 75.6557 31.7639H75.621ZM57.2323 31.5388C56.8693 31.7292 56.4739 31.8229 56.1131 32.0634C56.0036 32.16 55.8221 32.2574 55.7523 32.4478C55.9662 32.5474 56.2176 32.5946 56.4343 32.7909L57.3346 32.9436C57.4793 32.8971 57.5513 33.0904 57.6586 32.9938C57.7328 32.6101 57.8423 32.2198 57.9165 31.8325C57.7026 31.7358 57.4837 31.5388 57.2323 31.5388ZM76.6726 30.3215C76.4565 30.6114 76.3096 30.9958 76.2376 31.3832C76.2007 31.5765 76.0187 31.6237 76.0891 31.817L76.5566 33.1251L76.6264 33.2247C76.9174 32.7909 76.7755 32.1106 76.9916 31.6296L76.8871 30.8055C76.8519 30.6616 76.8195 30.4181 76.6726 30.3215ZM74.1525 29.5314C73.971 29.6752 73.7917 29.7689 73.6102 29.8656V29.9593C73.8242 30.2994 73.9683 30.6403 74.2196 30.9332C74.2224 30.5466 74.257 30.2094 74.3318 29.8722C74.2592 29.7719 74.2966 29.5314 74.1525 29.5314ZM71.2991 30.6211C70.6171 29.8442 69.7536 29.3071 68.8505 29.5409C67.9128 29.7283 67.1516 30.593 66.3557 31.2172C65.3085 32.0325 64.1167 32.4103 62.8528 32.6441C62.3132 32.6877 61.7357 32.7349 61.1588 32.6286L59.8971 32.4287L59.7904 32.4789C59.6061 32.8625 59.4246 33.2469 59.39 33.7309C59.2013 34.9387 59.2338 36.294 59.5181 37.4089C59.9438 39.1538 60.5488 40.9488 61.6263 42.1633C62.1295 42.6502 62.6317 43.0907 63.2466 43.2877C63.8213 43.3873 64.3983 43.2471 64.9406 43.0597C65.9878 42.5816 67.0702 42.0607 68.2246 41.8733C68.8043 41.683 69.4891 41.7855 70.1007 41.8386C70.4609 41.8386 70.8217 41.6955 71.1825 41.6512C71.5433 41.5575 71.9041 41.4144 72.2325 41.1237C73.063 40.456 73.5728 39.2976 73.6498 38.0389C73.6542 37.1211 73.6218 36.2003 73.4447 35.3762C73.2329 33.7803 72.5185 32.3726 71.732 31.1582L71.2991 30.6211ZM75.2718 29.2007C75.0903 29.4877 74.6899 29.7253 74.7273 30.1621L74.5408 31.8074L74.6459 32.2412C74.7179 32.2914 74.8252 32.4847 74.9368 32.4382C75.153 31.8103 75.2998 31.0865 75.4461 30.4085L75.3763 29.7341C75.3763 29.5408 75.4159 29.2974 75.2718 29.2007ZM75.7816 28.1864C75.67 28.8637 75.8091 29.541 75.9164 30.1246C75.9538 30.222 75.8795 30.4588 76.0236 30.4153C76.3146 29.9777 76.3888 29.4502 76.5335 28.9197L76.4658 28.3826C76.396 27.9016 75.9956 28.1391 75.7816 28.1864ZM17.9162 27.5835C17.5581 27.5363 17.3392 28.0173 17.1929 28.3545C17.1528 29.2723 17.0791 30.1902 16.6781 30.9147C16.7106 32.076 16.9949 33.044 17.0994 34.1588C17.2045 34.9829 17.4162 35.7569 17.5949 36.5345C17.8419 37.549 18.1631 38.4698 18.4491 39.4444C19.1614 41.4299 20.3087 43.2279 21.4912 44.8296C22.1754 45.6132 22.8926 46.3436 23.6835 46.928C24.1163 47.1744 24.5096 47.4643 24.9424 47.6149C25.4479 47.5676 25.9154 47.5706 26.3856 47.4769C26.7464 47.24 26.714 46.7096 26.7508 46.2256C26.7162 45.7881 26.5368 45.3513 26.3229 44.9639C25.3197 43.4094 24.135 42.285 23.167 40.6839C22.3079 38.9353 21.5588 37.1403 21.242 35.1076L21.1722 34.527C20.9956 33.4594 20.8559 32.3977 20.6442 31.3301C20.2157 30.1651 19.9319 28.8105 19.0332 27.9797C18.7098 27.6898 18.3144 27.5865 17.9162 27.5835ZM72.6444 27.8735C72.5372 27.9709 72.354 28.0174 72.354 28.1613C72.5696 28.4048 72.7489 28.6512 73.0025 28.8445C73.0745 28.6541 72.9304 28.5545 72.8584 28.4579C72.7891 28.2609 72.8606 27.8772 72.6444 27.8735ZM74.1245 27.2559L73.5453 27.88C73.5101 28.3139 73.5426 28.7979 73.4683 29.1882L73.5052 29.3313C73.7565 29.335 73.9034 28.9012 74.1569 28.7543C74.1569 28.2703 74.1943 27.7391 74.1619 27.2559H74.1245ZM74.9577 26.9246C74.9181 26.9246 74.8829 26.9246 74.8461 26.9216C74.7042 27.0183 74.5919 27.1621 74.5919 27.3554C74.5898 27.9361 74.6992 28.3736 74.697 28.9535C74.697 29.0007 74.7691 29.0974 74.8389 29.0509C74.9857 28.8104 75.1997 28.6171 75.2393 28.3293C75.1673 28.1796 75.0226 28.1331 74.9506 27.9863C74.9159 27.8896 74.9159 27.8424 74.9506 27.7457C74.9555 27.455 75.0622 27.2153 74.9577 26.9246ZM67.4195 26.5816C67.0933 26.6753 66.9492 27.0589 66.6605 27.1556C66.6605 27.2994 66.8024 27.4463 66.9118 27.4957L67.7429 27.115C67.7429 27.0183 67.7451 26.8745 67.6708 26.825C67.4915 26.9682 67.4915 26.6782 67.4195 26.5816ZM70.4148 26.3093C70.2333 26.5033 70.0166 26.6464 69.9071 26.887L70.34 26.9902C70.412 26.8434 70.4494 26.6029 70.4494 26.3594L70.4148 26.3093ZM75.6815 26.1065C75.4252 26.4909 75.3158 27.0214 75.3884 27.5555C75.637 27.605 75.8911 27.512 76.1094 27.3681C76.1446 27.1246 76.0027 26.9313 75.9653 26.6871C75.8955 26.4938 75.8234 26.2039 75.6815 26.1065ZM68.7224 25.863C68.4689 26.1508 68.1411 26.4879 68.2131 26.9712C68.3572 27.0214 68.5365 27.025 68.646 26.8782C68.6806 26.5875 68.7554 26.2039 68.7576 25.863H68.7224ZM71.248 25.4446C71.1033 25.4948 70.9592 25.6387 70.9196 25.832C70.957 26.2193 70.9174 26.6532 70.9152 27.0405L70.9521 27.1836C71.0593 27.2338 71.1314 27.3305 71.2755 27.3305L71.3151 26.6561C71.2782 26.4126 71.5692 26.0755 71.2804 25.8822C71.2452 25.7353 71.32 25.5915 71.248 25.4446ZM74.0266 25.0294C73.8104 25.0766 73.5563 25.1703 73.3402 25.3141C73.1213 25.8948 73.1169 26.6186 73.0795 27.2966C73.0795 27.3933 73.0795 27.4899 73.1515 27.4929C73.4403 27.1055 73.696 26.7684 74.0194 26.4813L74.0568 26.3345C73.987 25.9007 74.1316 25.4669 74.1338 25.0294H74.0266ZM72.728 24.8263C72.4745 25.0698 72.2204 25.3576 71.9668 25.5944C71.8926 26.2724 71.7485 26.8996 71.7061 27.5769C71.7435 27.6743 71.8156 27.7237 71.8876 27.6743C72.1043 27.5333 72.2858 27.2434 72.5394 27.0995C72.6142 26.375 72.6164 25.6475 72.8353 24.9732C72.8353 24.9237 72.8023 24.7799 72.728 24.8263ZM67.4657 24.4522C67.1054 24.6891 66.7396 24.9798 66.3442 25.0735C66.2353 25.5073 66.2694 25.9913 66.2694 26.4281L66.3392 26.572C66.7721 26.431 67.063 25.8541 67.4239 25.4667L67.5008 24.5489L67.4657 24.4522ZM69.8818 24.4205C69.735 24.4677 69.5909 24.6108 69.4836 24.7082L69.2625 25.7227C69.2279 26.0126 69.1531 26.3498 69.2603 26.6435C69.5117 26.6435 69.7278 26.3535 69.9099 26.113L69.9517 24.5643L69.8818 24.4205ZM65.8437 24.2959C65.5901 24.4862 65.3366 24.7268 65.0825 24.8706L65.0104 24.9171L65.5131 25.6977C65.5852 25.7449 65.6572 25.9382 65.7623 25.891C65.7667 25.3605 65.8415 24.8765 65.8783 24.3925L65.8437 24.2959ZM68.4458 22.9598C68.1922 23.1531 68.0107 23.5375 68.08 23.9713C67.8985 24.5519 67.9662 25.1798 67.8941 25.8099L67.9288 25.9066C68.036 25.9066 68.1081 25.7634 68.2175 25.6668C68.3622 25.4262 68.6157 25.2359 68.5107 24.8485L68.5503 23.3471C68.5156 23.2003 68.6251 22.9133 68.4458 22.9598ZM72.2693 22.7908C72.0856 23.322 71.8667 23.8554 71.7925 24.4331C71.7903 24.577 71.7204 24.7703 71.8623 24.8234C72.1159 24.6301 72.3694 24.3424 72.5861 24.0524L73.0212 23.7654L73.2775 23.0911C73.3121 22.9937 73.4194 22.8505 73.3495 22.7037C72.9887 22.7502 72.5933 22.6506 72.2693 22.7908ZM74.0338 22.7097C73.7802 23.1405 73.6708 23.6245 73.4865 24.1056C73.4145 24.2022 73.3446 24.4457 73.4865 24.5424L74.3176 24.3055C74.427 24.2583 74.641 24.1181 74.7482 24.355C74.6762 24.9858 74.4919 25.52 74.4897 26.1441C74.5271 26.291 74.5249 26.4378 74.6344 26.4378L75.104 25.9567C75.2113 25.7634 75.4649 25.6196 75.4649 25.3326C75.0018 24.4553 74.5711 23.584 74.2175 22.6602C74.1801 22.5665 74.0712 22.6602 74.0338 22.7097ZM71.7645 22.4005C71.4036 22.4005 71.078 22.6882 70.7546 22.7819L70.4263 23.5057C70.3168 24.0834 70.2398 24.7113 70.2729 25.3421C70.2729 25.4387 70.3075 25.5856 70.4191 25.4882C70.7799 25.0543 71.1429 24.574 71.4317 24.0428L71.5434 23.322C71.6176 23.0313 71.7622 22.838 71.8343 22.5008L71.7645 22.4005ZM66.2254 22.073C66.0439 22.1667 65.825 22.2168 65.6479 22.1165L65.2849 22.4042C65.1034 22.5511 64.8872 22.5946 64.7057 22.8381C64.7404 23.2689 64.6309 23.7057 64.6287 24.1897C64.6287 24.2864 64.7008 24.3838 64.7728 24.3838C65.2431 24.096 65.7507 23.7124 66.1484 23.1848C66.221 22.8477 66.2232 22.5068 66.2974 22.1696C66.2974 22.1202 66.2606 22.073 66.2254 22.073ZM63.8444 22.0073C63.7003 22.1512 63.4814 22.1976 63.3395 22.3917L64.0914 23.5095L64.1981 23.5559L64.2377 23.0749C64.2377 22.9782 64.131 22.9753 64.0584 22.9753C63.9143 22.8285 63.9495 22.5385 63.9495 22.298C63.9517 22.2013 63.9891 22.0073 63.8444 22.0073ZM58.461 21.3889C57.6327 21.2391 56.695 21.1831 56.0432 21.9046C55.5708 22.3385 55.3915 23.063 55.2776 23.7868C55.2402 24.318 55.2402 24.8514 55.3101 25.3354C55.6291 26.5941 56.3457 27.6647 57.2092 28.3449C58.4682 29.2259 59.7997 29.9127 61.2776 30.1186C62.1059 30.2219 62.8621 30.0308 63.6211 29.8404C64.0914 29.6066 64.5963 29.4162 64.9945 29.0318C64.6733 28.3516 64.1706 27.768 63.8466 27.087C63.2394 26.116 62.5574 25.2388 61.9128 24.315C61.1934 23.4407 60.4047 22.6129 59.5786 21.9792C59.2178 21.7327 58.857 21.5394 58.461 21.3889ZM69.7119 21.3734L69.2042 22.0448C68.9485 22.6726 68.9831 23.4931 68.8737 24.2176C68.8737 24.2678 68.9089 24.3644 68.9809 24.3674C69.449 24.0302 70.0655 23.5499 70.1398 22.7287C70.1425 22.2447 70.324 21.8603 70.3262 21.4235L69.7119 21.3734ZM62.4062 21.127C62.3688 21.1735 62.3688 21.1735 62.3688 21.2207C62.404 21.3204 62.4409 21.4177 62.4766 21.3204C62.5135 21.2739 62.5135 21.127 62.4062 21.127ZM53.8575 21.355V21.4517C54.0022 21.4081 54.1837 21.358 54.2557 21.1174C54.2931 20.9241 54.5445 20.7803 54.5467 20.5397C54.1859 20.4401 54.0044 21.0208 53.8575 21.355ZM80.2223 20.8149C80.1849 20.8149 80.1497 20.671 80.1107 20.7677C80.0034 21.1049 79.8593 21.442 79.7845 21.7792C79.8918 21.926 80.0359 22.0729 80.18 22.0729C80.2526 21.6862 80.3268 21.2517 80.2223 20.8149ZM67.7076 20.4873C67.4541 20.871 67.1631 21.158 66.947 21.4988L66.8722 21.929C66.7281 22.7066 66.6143 23.4776 66.5048 24.2523C66.5021 24.3962 66.6489 24.3991 66.7209 24.349C67.0443 24.0118 67.4447 23.6776 67.6263 23.1936C67.7016 22.4226 67.6681 21.5984 67.8523 20.8739C67.8523 20.7271 67.8523 20.4873 67.7076 20.4873ZM63.5629 20.3589C63.3814 20.5057 63.1625 20.6496 62.9832 20.84L62.8715 21.8072C62.8693 21.8544 62.8693 21.954 62.9436 21.954C63.1229 21.7607 63.3418 21.7106 63.5211 21.4737C63.7746 21.1336 64.2823 20.899 64.2471 20.3183C64.0309 20.3154 63.7796 20.5087 63.5629 20.3589ZM61.5427 20.1995C61.5801 20.3936 61.6868 20.443 61.7941 20.4932L61.8337 20.156C61.8689 19.7687 61.5801 20.1058 61.5427 20.1995ZM73.3616 20.0403H73.3237C73.1422 20.1871 73.0679 20.4778 73.0679 20.7678C72.9233 21.1522 72.7049 21.4894 72.5603 21.876C72.486 21.9232 72.486 22.07 72.5955 22.07C72.9563 22.073 73.3517 22.1231 73.6405 21.9291C73.7499 21.8856 73.894 21.8361 73.894 21.6923L73.3616 20.0403ZM71.7738 19.841C71.4108 20.2719 71.1572 20.8024 70.9405 21.2834C70.9009 21.5734 70.7194 21.8168 70.8267 22.0574C71.2969 22.0138 71.6247 21.3395 72.1296 21.2458C72.3837 21.0053 72.6373 20.5213 72.6395 20.0874L71.7738 19.841ZM70.5473 19.8315C70.368 19.878 70.3306 20.1185 70.2959 20.2624C70.2563 20.4557 70.0424 20.5995 70.1095 20.843C70.2563 20.8932 70.4356 20.7958 70.6171 20.7028C70.7612 20.4121 70.9801 20.1222 71.0522 19.7843C70.8729 19.7813 70.6914 19.878 70.5473 19.8315ZM60.7721 20.8237C60.2672 20.4342 59.7645 20.0933 59.2272 19.8469C57.9633 19.2567 56.4134 19.4382 55.3634 20.3995C54.4955 21.2177 54.1325 22.4727 53.9087 23.7307C53.8273 26.144 54.721 28.1361 56.1224 29.5475L56.8413 30.1806C58.3521 31.2083 60.0065 31.8015 61.8826 31.8141C62.569 31.7233 63.323 31.8229 63.977 31.5359C65.1666 31.2083 66.1786 30.1031 67.3006 29.3845C67.8803 28.9536 68.5645 28.8606 69.2141 28.6695L70.0446 28.7758C71.1242 29.2192 72.1296 30.1466 72.8094 31.5514C73.2423 32.2789 73.4892 33.0565 73.773 33.8806C73.9897 34.6583 74.0942 35.4293 74.1965 36.2534L74.2988 37.6582C74.2944 39.2533 73.8203 40.7024 72.8419 41.6143C71.8997 42.6221 70.6034 42.5631 69.3769 42.4598C68.2224 42.4539 67.2473 42.9313 66.2369 43.309C65.2271 43.8838 64.0699 44.4054 62.9182 44.0114C61.8358 43.5186 60.7958 42.4974 60.1512 41.1391C59.7227 40.0715 59.2596 38.9538 59.0457 37.746L58.8708 37.065C58.6244 35.5636 58.6662 33.7279 59.1766 32.3755C59.0336 32.132 58.78 32.2257 58.6359 32.132L58.4913 32.1763C58.1981 33.1436 58.0865 34.2554 58.0447 35.3666L58.0793 36.3847C58.1822 37.6397 58.538 38.8542 58.8944 39.9683C59.5016 41.3265 60.1462 42.7815 61.1516 43.7089C62.085 44.73 63.3467 45.273 64.6452 44.8953C65.2222 44.6577 65.8343 44.5175 66.414 44.1331C67.3518 43.7997 68.2571 43.2751 69.3021 43.3312C70.1331 43.4809 70.9966 43.2935 71.8271 43.1563C73.3077 42.8287 74.4341 40.8521 74.8015 39.0165C75.0204 38.1488 74.988 37.1307 74.9577 36.1627C74.8527 34.8081 74.4594 33.5966 74.0315 32.3851C73.4612 31.0239 72.7093 29.6161 71.7039 28.6415C71.2733 28.2512 70.803 28.0077 70.3377 27.8085C69.6161 27.6115 68.8577 27.7023 68.1735 27.8425C67.0537 28.1236 66.1484 29.0384 65.171 29.853C63.7256 31.0519 61.7775 31.136 60.0483 30.7369C58.6777 30.3399 57.4188 29.6066 56.2715 28.5323C55.1566 27.3149 54.3696 25.6165 54.6303 23.5868C54.7419 22.5723 55.1797 21.608 55.9013 21.0333C57.3511 19.7842 59.2943 20.5744 60.5516 21.7917L62.2384 23.6436C63.5326 25.0514 64.5358 26.8996 65.7177 28.5515C65.897 28.4076 66.1159 28.3139 66.2606 28.0734L65.6154 27.053C64.7547 25.5479 63.7515 24.3268 62.7461 22.9191C62.3154 22.4823 61.9222 21.898 61.4915 21.5077L60.7721 20.8237ZM65.7304 19.36C65.4758 19.6005 65.1876 19.7909 64.9362 19.9812C64.8966 20.2719 64.7894 20.4652 64.7151 20.7087C64.6057 21.1425 64.5309 21.5764 64.4566 22.0102C64.4214 22.1076 64.4912 22.157 64.5639 22.157C64.9989 21.9667 65.3597 21.5328 65.6529 21.099C65.6903 20.5183 65.7623 20.0373 65.8393 19.5039C65.8393 19.4102 65.8393 19.3098 65.7304 19.36ZM54.1182 18.9882C53.7228 19.1321 53.362 19.4663 52.9638 19.7068L52.708 20.5243L52.7432 20.5745C53.0688 20.5273 53.3576 20.1436 53.681 20.047C53.9345 19.906 54.116 19.5696 54.1182 19.1823V18.9882ZM60.1787 18.4982L59.5995 18.8819V18.9793C60.0346 19.1261 60.3932 19.4692 60.7886 19.6625C60.8607 19.4721 60.9355 19.3253 60.8981 19.0818H60.7562C60.5719 19.0324 60.43 19.2257 60.2837 19.129C60.1765 18.9822 60.3602 18.5484 60.1787 18.4982ZM62.2362 18.417C61.9475 18.3668 61.6939 18.7011 61.4404 18.7977C61.3309 18.9917 61.3309 19.2315 61.3683 19.4757C61.5828 19.4256 61.799 19.2352 62.0525 19.188C62.1246 18.9475 62.234 18.7542 62.2709 18.5136L62.2362 18.417ZM67.6075 18.1175C67.3914 18.4045 67.1378 18.645 66.8843 18.8354C66.705 18.9793 66.5235 19.0257 66.3788 19.1696C66.2694 19.8469 66.2298 20.5744 66.1907 21.2517C66.4069 21.2517 66.5884 21.0584 66.733 20.8651C67.0586 20.4342 67.3496 19.9532 67.6752 19.4692L67.6801 18.2606C67.6801 18.2112 67.6823 18.1175 67.6075 18.1175ZM69.4462 18.7572C69.1904 19.3349 68.7576 19.8159 68.3946 20.1996L68.278 22.3761H68.3132C68.6762 21.9452 69.037 21.5608 69.3301 21.0303C69.4396 20.6932 69.6557 20.4526 69.9098 20.1656C70.2354 19.6816 69.5859 19.872 69.4814 19.5813C69.3345 18.9977 69.807 18.5668 69.8444 18.0326C69.5232 17.936 69.5556 18.5166 69.4462 18.7572ZM56.0366 17.8896C55.7479 17.8867 55.4569 18.0298 55.1682 18.077C54.9146 18.5109 54.8052 19.0413 54.6583 19.5224L54.6561 19.7194C54.7656 19.7659 54.875 19.6692 54.9817 19.622C55.1632 19.5755 55.4146 19.6257 55.5614 19.4818C55.7407 19.0008 55.8898 18.4673 56.0713 17.9863L56.0366 17.8896ZM56.9716 17.846C56.8297 17.8955 56.7555 18.0866 56.6108 18.0394C56.5019 18.3264 56.3199 18.5669 56.3925 18.8605L57.4397 18.5293L57.4771 17.8992C57.372 17.655 57.1185 17.7988 56.9716 17.846ZM72.9002 17.621C72.6488 17.8114 72.3557 18.0519 72.2138 18.392C72.139 18.7292 71.8508 18.9195 71.848 19.2102C72.244 19.5039 72.8562 19.557 73.2192 19.1224L73.0421 17.911C73.0074 17.8143 73.0096 17.621 72.9002 17.621ZM78.7929 17.2277C78.5371 17.7581 78.2115 18.2857 78.1345 18.96C78.2066 19.3975 78.6048 19.4507 78.8539 19.6941L78.926 19.644L78.8605 18.7726C78.7885 18.2894 78.8627 17.7117 78.7929 17.2277ZM81.7162 17.0056L81.6045 17.0499C81.5303 17.5368 81.3856 17.9707 81.346 18.5011C81.346 18.648 81.346 18.7918 81.4907 18.7417C81.8537 18.5041 82.1072 17.9736 82.396 17.5427C82.4334 17.4933 82.4702 17.3494 82.3982 17.2528L81.7162 17.0056ZM71.3294 16.9341C70.7497 17.5088 70.2426 18.2798 69.9142 19.1475C69.912 19.2441 69.9863 19.1976 70.0215 19.2441C70.5264 19.2006 71.0313 19.2035 71.4663 18.9165C71.7204 18.4355 72.0114 17.9522 72.2996 17.424L72.2627 17.3745C71.9762 17.2277 71.6528 17.0809 71.3294 16.9341ZM66.0626 16.9436L66.0301 16.847C65.5945 17.2306 65.1243 17.3745 64.6546 17.6585C64.5451 18.2857 64.396 18.963 64.252 19.5407C64.5006 19.641 64.6474 19.354 64.8663 19.2566L65.9531 17.9581L66.0626 16.9436ZM64.368 16.7844L64.3334 16.7379C64.1887 16.881 64.0804 17.1216 63.9726 17.2654C63.5722 17.6026 63.2114 17.8926 62.8484 18.277C62.7389 18.7078 62.5921 19.0974 62.5178 19.532C62.4832 19.8219 62.4084 20.1097 62.4804 20.3996C62.6603 20.4026 62.7345 20.2093 62.8412 20.0654C62.916 20.016 63.0227 20.0654 63.13 19.9717L63.7465 19.2973C63.8934 18.623 63.9704 17.9427 64.2938 17.365L64.368 16.7844ZM58.4891 17.0337C58.3098 17.1776 58.1283 17.3244 57.9842 17.4683C57.9122 17.7583 57.91 18.1456 58.0167 18.3861C58.196 18.3891 58.3428 18.1958 58.5243 18.0519C58.8851 17.8616 58.7801 17.2809 58.9616 16.8936C58.999 16.3631 58.5986 16.8906 58.4891 17.0337ZM70.2096 16.6346C70.2096 16.9718 69.7767 17.4056 70.1376 17.5524L70.715 16.878C70.7519 16.8308 70.7893 16.7342 70.7547 16.6375C70.5704 16.6346 70.3565 16.4907 70.2096 16.6346ZM56.6554 16.394C56.4013 16.5873 56.183 16.7777 56.0015 17.0684V17.165H56.2897C56.4343 17.0684 56.6879 17.0713 56.6879 16.7312C56.6532 16.6345 56.7621 16.4405 56.6554 16.394ZM79.9473 16.2656L79.9127 16.3129C79.8775 16.5062 80.0194 16.653 80.1289 16.8028C80.1987 16.8965 80.3434 16.85 80.4176 16.7533C80.6343 16.5593 80.669 16.9968 80.8483 17.0964C80.9577 17.0964 81.137 17.1466 81.2437 17.0027C81.2811 16.9031 81.2811 16.7127 81.1739 16.6626C80.7784 16.5158 80.3829 16.3158 79.9473 16.2656ZM69.2768 16.0974C69.1695 16.0473 69.0601 16.1911 68.988 16.2376C68.3737 16.5254 68.3687 17.4432 68.1872 18.1205C68.1498 18.5078 68.1108 18.9417 68.1476 19.329H68.2175C68.5436 18.9918 68.762 18.5108 69.0161 18.077C69.2322 17.5457 69.5606 17.0153 69.7817 16.4376C69.6744 16.3409 69.4907 16.3409 69.3835 16.2878L69.2768 16.0974ZM60.2997 15.8878C60.0461 16.0782 59.7926 16.1719 59.5737 16.4161C59.3575 16.9466 59.3201 17.5243 59.3179 18.1049C59.3179 18.2016 59.3504 18.3455 59.4598 18.2518C59.8206 18.1108 60.0742 17.6268 60.4025 17.3871C60.5092 17.0499 60.6561 16.7127 60.6935 16.3254H60.5862C60.4421 16.2287 60.4069 15.9852 60.2997 15.8878ZM78.4717 15.9196C78.002 16.4936 77.7457 17.2653 77.3827 17.8954C77.2337 18.9542 77.4454 19.928 77.5873 20.896C77.7298 21.4767 78.1599 21.6235 78.486 21.9172C78.772 22.1606 79.1328 22.2101 79.4216 22.5037C79.5635 22.5539 79.7428 22.7472 79.8896 22.6505C79.2775 21.9703 78.5977 21.3859 78.0202 20.6555C77.8436 19.9782 77.6319 19.2507 77.7413 18.4761C77.8904 17.8991 78.1412 17.3177 78.4349 16.7872C78.579 16.5002 78.8303 16.3069 78.9744 16.0192C78.8325 15.8694 78.6164 15.7255 78.4717 15.9196ZM61.5614 16.0878L61.1588 16.909C61.0141 17.3428 60.8304 17.7302 60.793 18.2112C60.793 18.358 60.8656 18.4547 60.9377 18.4075C61.3353 18.1669 61.7335 17.9301 62.0965 17.5457L62.3132 16.7245C62.3875 16.2878 62.5712 15.8038 62.6438 15.3729C62.283 15.6105 61.9222 15.8008 61.5614 16.0878ZM67.9106 14.9235C67.5844 15.1641 67.2962 15.4511 67.0075 15.7381C66.7864 16.4161 66.5697 17.0934 66.4932 17.8172C66.4932 17.9611 66.4581 18.1551 66.6 18.2045C67.1054 18.0142 67.4684 17.2934 67.8314 16.7157C67.8682 16.1815 67.871 15.6008 67.9827 15.0704C67.9827 14.9737 67.9453 14.9265 67.9106 14.9235ZM72.4047 15.3449L72.0813 15.7293C71.9344 16.0192 71.6435 16.1129 71.5714 16.4036C71.7507 16.5497 71.8954 16.6471 72.0763 16.6936C72.3255 16.7467 72.6863 16.9437 72.8678 16.7002C72.9046 16.169 72.7979 15.7322 72.8375 15.2512C72.8397 14.6705 72.4767 15.1981 72.4047 15.3449ZM81.0017 14.9671C80.604 14.8675 80.136 14.8173 79.8824 15.201C79.8104 15.2984 79.8428 15.4452 79.9149 15.5418C80.4946 15.7381 81.0693 15.938 81.6463 16.1815C82.0423 16.3313 82.3657 16.7186 82.7963 16.7216C82.8684 16.7216 82.9404 16.6751 82.9404 16.5283C82.908 16.3379 82.7265 16.3342 82.6544 16.2848C82.1143 16.1845 81.7909 15.651 81.3977 15.2135L81.0017 14.9671ZM63.8004 15.1855C63.6189 15.3795 63.4 15.3758 63.2207 15.5226C63.037 16.1003 62.7835 16.6279 62.674 17.2587C62.6713 17.3553 62.6014 17.5022 62.7065 17.5022C63.0321 17.4055 63.2862 16.9717 63.614 16.7312C63.8675 16.4442 64.0122 16.0568 64.3004 15.8192C64.6991 15.5795 64.6287 14.9014 64.7382 14.4676C64.4148 14.7052 64.1266 14.9951 63.8004 15.1855ZM58.8989 14.0869C58.3566 14.6144 57.8143 15.0955 57.3792 15.6732C57.2324 16.1564 57.0883 16.6375 57.1207 17.168C57.3 17.2211 57.4469 16.9776 57.6234 16.9341C57.9144 16.6906 58.1679 16.453 58.4215 16.1631C58.4589 15.682 58.6431 15.2947 58.7179 14.8114C58.752 14.5709 58.8989 14.3304 58.8989 14.0869ZM71.3734 14.174C70.8685 14.5584 70.4356 15.0387 69.9978 15.6636C69.9632 15.7138 69.9258 15.8104 69.9978 15.9071C70.396 16.0067 70.8641 16.0104 71.2969 15.9167C71.6572 15.7256 71.9135 15.1479 72.2022 14.7613C71.9509 14.5178 71.6643 14.2743 71.3734 14.174ZM84.8654 13.7371C84.7538 13.9304 84.6812 14.1244 84.679 14.3642C84.6443 14.6549 84.5349 14.8984 84.3534 14.9921C84.0646 15.1825 84.2439 15.7166 83.9904 15.9099C83.7363 16.1475 83.4827 16.4345 83.3733 16.7746C83.3386 16.8248 83.3733 16.9185 83.4453 16.9185C83.662 16.9716 83.876 16.875 84.0597 16.6344C84.4232 16.0567 84.7142 15.4761 84.9677 14.8017C85.0398 14.5612 85.2235 14.3207 85.114 14.0278C85.0794 13.9334 84.9721 13.74 84.8654 13.7371ZM69.6838 13.4376L68.8879 14.0618C68.4155 14.396 68.52 15.2201 68.4133 15.7978L68.4479 15.9447C68.6646 15.9447 68.7713 15.6075 68.9528 15.4636L69.6068 14.9826L70.8382 13.7836L70.8008 13.7372C70.4032 13.684 70.0792 13.3933 69.6838 13.4376ZM61.1027 13.0378C60.6677 13.2783 60.237 13.372 59.802 13.5623C59.3669 14.1865 59.1458 14.9612 59.0012 15.7824C59.0012 15.879 59.0732 15.9255 59.1431 15.879C59.5413 15.6415 59.9763 15.4976 60.3025 15.0173C60.484 14.7266 60.8074 14.7768 60.8816 14.3894C60.9911 14.0058 61.0631 13.5682 61.1753 13.1846C61.1753 13.0879 61.1753 12.9913 61.1027 13.0378ZM81.0066 13.0348C80.9368 13.0812 80.8273 13.1779 80.8994 13.2753L81.6908 13.715C82.0841 14.0087 82.5169 14.399 82.8403 14.8357C83.0917 15.0792 83.3056 15.6635 83.6664 15.3758C83.7038 15.2297 83.5603 15.0829 83.5245 14.9361C82.8057 14.0116 82.0907 12.5567 81.0066 13.0348ZM73.1119 12.7353C72.9678 12.7847 72.8584 12.832 72.7511 12.9751C72.3903 13.0688 72.0625 13.2628 71.7738 13.4997L71.7364 13.6937C71.9179 13.9837 72.2418 14.0338 72.458 14.2308C72.6373 14.2832 72.8166 14.4773 72.9607 14.2338C73.0355 13.8 73.1103 13.3189 73.184 12.832L73.1119 12.7353ZM63.2328 12.0387C62.7274 12.4194 62.2225 12.7566 61.7869 13.2841C61.6378 14.0086 61.3122 14.6365 61.1307 15.3603L61.1285 15.5071C61.3799 15.4105 61.5988 15.3168 61.8171 15.1729C62.2131 14.7391 62.6108 14.3554 62.9045 13.8242L62.9743 13.5844C63.0491 13.0532 63.1602 12.5692 63.2328 12.0387ZM66.9492 12.0638C66.4745 12.8348 65.9344 13.5557 65.3179 14.0839L65.3151 14.5672C65.1688 15.0512 64.9873 15.4821 64.9125 16.0162L64.9103 16.6434L64.9455 16.7902C65.127 16.8404 65.2365 16.6935 65.3784 16.5534C65.5247 16.3099 65.7436 16.2627 65.8508 16.0221C66.067 15.7322 66.3579 15.4452 66.5394 15.1574C66.579 14.0434 66.7655 13.0318 67.0212 12.0638C67.0212 11.9672 66.9492 12.0638 66.9492 12.0638ZM67.596 12.0195L67.5613 11.9229C67.4519 12.0668 67.4145 12.3102 67.4145 12.5035C67.233 13.0812 67.1213 13.7091 67.1191 14.3399C67.1191 14.5332 67.0443 14.7738 67.189 14.8239C67.624 14.7302 67.915 14.1024 68.2758 13.7652C68.4578 13.2841 69.2141 13.1941 68.9671 12.5131C68.8225 12.463 68.713 12.5604 68.6063 12.6068L67.9172 13.0377C67.8451 13.0842 67.7379 13.1344 67.6658 12.9875L67.596 12.0195ZM71.2755 11.6108C70.9521 11.9952 70.5891 12.3323 70.3355 12.8126C70.4428 12.9595 70.6611 12.913 70.803 12.9595C70.9125 13.0096 70.9125 13.2531 71.0544 13.2029L72.211 12.488L72.3557 12.3449C72.2138 12.1014 71.9602 11.9546 71.7457 11.8078C71.5664 11.8078 71.4603 11.6108 71.2755 11.6108ZM83.178 11.6456C82.8915 11.4516 82.4938 11.1085 82.1699 11.3955C82.1699 11.4922 82.1699 11.5895 82.2051 11.5895C82.9591 11.9356 83.6059 12.7634 84.1438 13.5373C84.2159 13.6369 84.3231 13.5905 84.3952 13.4938C84.5767 12.9132 83.9667 12.5693 83.7506 12.1827L83.178 11.6456ZM64.9312 11.0833L64.4263 11.4677C64.247 11.6109 63.9935 11.5577 63.8818 11.8012C63.8444 12.719 63.4814 13.4908 63.4418 14.4116C63.4418 14.5053 63.4765 14.5053 63.5491 14.5053C63.9121 14.171 64.2377 13.7874 64.5963 13.5469C64.9615 13.2591 65.0363 12.7759 65.0385 12.2446C65.0011 11.9045 65.1826 11.6175 65.0759 11.2766C65.0759 11.18 65.0429 11.0332 64.9312 11.0833ZM84.7675 11.1238C84.6185 12.0918 85.5562 11.8078 85.6981 12.5847C85.8054 12.8252 85.6959 13.0192 85.7311 13.259C85.8032 13.4059 85.9104 13.4059 86.0545 13.4059C86.4175 13.2155 86.4918 12.685 86.527 12.201C86.4593 11.8609 86.2778 11.4735 86.0639 11.2301C85.6684 10.9866 85.1283 10.69 84.7675 11.1238ZM61.7264 10.721C61.2539 11.2485 60.7815 11.8735 60.309 12.4039C60.2744 12.4512 60.2392 12.5478 60.2744 12.5972C60.6698 12.4541 60.9982 12.17 61.431 12.1199C61.6846 11.7857 61.794 11.2552 61.7616 10.7712L61.7264 10.721ZM83.3617 10.7771C83.1802 10.7742 82.9641 10.724 82.8541 10.8708C82.8541 10.918 82.8541 10.9682 82.8915 10.9682C83.2875 11.1615 83.6455 11.4551 84.0063 11.748C84.0784 11.6049 84.1158 11.3614 84.1158 11.1674C83.9018 10.9269 83.5757 10.9711 83.3617 10.7771ZM80.4038 10.6583C79.5381 11.2331 78.7395 12.0978 77.7644 12.2852C77.1176 12.3789 76.468 12.179 76.1094 11.4987L76.0726 11.5489C75.9631 12.0321 76.1424 12.4195 76.3938 12.7131C76.8943 13.3904 77.7622 13.2997 78.3765 13.0156C79.2796 12.5383 80.0034 11.6263 80.7272 10.662C80.62 10.6119 80.5133 10.6583 80.4038 10.6583ZM72.8677 10.412C72.5443 10.7026 72.1835 10.8428 71.93 11.18L71.9624 11.2767L73.261 12.0137L73.3308 11.9635C73.4771 11.5268 73.5866 11.0457 73.6262 10.5152L72.8677 10.412ZM65.7623 10.5558C65.583 11.0368 65.5434 11.6175 65.506 12.1509C65.4317 12.4416 65.4664 12.7788 65.5016 13.0222C65.8272 12.8289 66.1181 12.3981 66.3728 11.9635C66.4811 11.7237 66.3744 11.4301 66.4118 11.1394C66.4118 10.7055 66.5207 10.3219 66.5235 9.88436C66.1995 9.97806 66.0158 10.3654 65.7623 10.5558ZM73.773 9.54715C73.6289 9.69102 73.4144 9.7375 73.3402 9.98097C73.4474 10.0784 73.5541 10.0311 73.6636 10.0311C73.8077 10.0311 73.8429 9.84079 73.8803 9.64749C73.8803 9.59732 73.8451 9.50066 73.773 9.54715ZM72.7655 9.10376C72.4767 9.05359 72.5114 9.49111 72.4025 9.68441C72.3304 9.82829 72.293 10.0688 72.3651 10.1655C72.5444 10.0718 72.7627 9.92789 72.942 9.6881C72.8722 9.49406 72.8375 9.30076 72.7655 9.10376ZM84.1972 8.84771C83.8738 8.65145 83.5504 8.69794 83.2594 8.83886C83.0081 8.88829 82.8612 9.12586 82.6099 9.12586C82.177 9.269 81.7442 9.50657 81.3091 9.65044C80.8411 9.79062 80.3362 9.7375 79.9033 9.92785C78.926 10.4059 78.1741 9.38483 77.199 9.57223C76.8728 9.61871 76.512 9.8098 76.4031 10.2436C76.2937 10.6302 76.3657 11.0678 76.5797 11.3112C77.0802 12.0387 77.9855 11.7045 78.563 11.4204C79.3935 10.9431 80.0826 9.93154 81.0902 10.0341C81.5231 10.0378 81.8866 9.8467 82.2821 9.65634C83.0053 9.22547 83.9062 9.42541 84.5536 9.91531C84.8792 10.0127 85.0909 10.7402 85.4193 10.3056C85.5287 9.919 85.1679 9.62831 84.9886 9.38483L84.1972 8.84771ZM73.3077 8.57623C73.2351 8.57623 73.2005 8.67289 73.2005 8.72306C73.1609 8.91636 73.1983 9.10671 73.305 9.25354C73.4144 9.30371 73.5217 9.1104 73.6311 9.0167C73.5987 8.82266 73.3798 8.72306 73.3077 8.57623ZM63.8978 8.12319C63.3907 8.65146 62.883 9.18194 62.4502 9.80612L62.1895 11.8358V12.0793H62.2247C62.6201 11.7421 63.1278 11.5045 63.3835 10.8774L63.7861 8.75401C63.7861 8.51054 63.9704 8.32018 63.933 8.12319H63.8978ZM65.055 7.93653C64.873 8.03318 64.6568 7.93653 64.5474 8.18C64.2916 9.04766 64.0007 9.91532 63.9611 10.8804L63.9957 10.9305C64.3565 10.69 64.7916 10.4997 65.0803 10.0658C65.1177 9.34131 65.2316 8.61678 65.3757 7.98965L65.055 7.93653ZM72.1208 7.89236C71.9416 7.74553 71.76 8.03328 71.5807 7.98606C71.506 8.12993 71.6154 8.1801 71.6874 8.27675C71.9019 8.56671 72.2253 8.61688 72.5509 8.52318C72.6257 8.4767 72.7676 8.42653 72.7325 8.23322C72.4811 8.23322 72.2996 8.0864 72.1208 7.89236ZM78.9001 7.88937C78.756 8.13284 78.6466 8.47002 78.679 8.8072C78.7511 9.05067 78.8605 9.34136 79.0376 9.39154C79.2565 9.53762 79.5425 9.49409 79.7587 9.34727C79.9407 9.30079 80.0496 9.01378 80.087 8.76957C80.087 8.47961 80.0546 8.18892 79.9451 7.94544C79.696 7.55883 79.1889 7.65253 78.9001 7.88937ZM74.2131 7.47102C74.0315 7.71154 73.5635 7.85541 73.6707 8.28924C73.7775 8.48254 73.9221 8.58288 74.1014 8.62937C74.2829 8.38884 74.3571 8.00519 74.427 7.66432C74.3945 7.52119 74.2851 7.47102 74.2131 7.47102ZM74.4364 6.26248C74.3269 6.35987 74.0756 6.45357 74.1801 6.69705C74.2895 6.7937 74.3968 6.94052 74.5409 6.98701C74.6828 6.8933 74.6855 6.60335 74.7576 6.40931C74.8318 6.11935 74.5436 6.16952 74.4364 6.26248ZM70.4681 6.04111C70.3983 6.04111 70.3983 6.13776 70.3983 6.18793C70.6122 6.67193 70.7893 7.20536 71.1501 7.49901C71.2574 7.64288 71.4367 7.69305 71.5434 7.59566C71.655 7.54918 71.6902 7.40531 71.6176 7.30866C71.2596 6.82171 70.9384 6.19089 70.4681 6.04111ZM80.8554 5.67885C80.7481 5.72607 80.7107 5.82272 80.7107 5.91937C80.6761 6.1599 80.7828 6.30672 80.9247 6.45354C81.0341 6.45354 81.1766 6.55315 81.2882 6.40928C81.3949 6.21597 81.2162 6.06915 81.1788 5.87584C81.0715 5.82567 80.9648 5.67885 80.8554 5.67885ZM77.6109 5.41324C77.4338 5.36381 77.2149 5.21994 77.0362 5.36086C76.6358 5.55121 76.2398 6.08169 76.2029 6.66234C76.2354 7.04969 76.3074 7.43704 76.5588 7.68051C77.4201 8.41389 78.2533 7.45253 79.0838 7.26218C79.8406 7.07478 80.3433 7.85168 80.9181 8.29215L81.3883 8.34527C81.423 8.39175 81.3883 8.48914 81.3883 8.48914C81.2767 8.72967 81.0974 8.72967 80.9159 8.77615C80.7344 8.82263 80.5551 8.57916 80.4478 8.72303C80.4478 8.86985 80.3741 9.15981 80.483 9.20703L81.0974 9.1635C81.7095 8.92592 82.3239 8.63892 82.9008 8.25821L82.9382 8.16082C82.6148 7.62739 82.1468 7.28357 81.7535 6.94345C81.5022 6.60332 81.2833 7.1338 80.9951 6.93755C80.5292 6.50003 79.8775 6.88073 79.3748 6.63431C78.8352 6.10088 78.2577 5.61319 77.6109 5.41324ZM75.7464 3.08174L75.637 3.17544C75.5605 3.90291 75.5952 4.7204 75.4857 5.44787C75.1854 7.76752 74.35 9.74705 73.943 12.0165C73.6845 13.6124 73.6075 15.4975 73.8148 17.193C73.9199 18.4015 74.2037 19.5628 74.4853 20.727C74.8065 22.0352 75.379 23.2968 76.2398 24.174C76.4911 24.5142 76.8195 24.1305 77.1407 24.1799C77.8271 24.0398 78.3298 24.5267 78.9793 24.5798C79.4144 24.5828 79.8824 24.4891 80.2058 24.0051C80.2801 23.9121 80.2801 23.7181 80.1734 23.6214C79.1652 23.0349 78.0856 22.6379 77.2963 21.5202C76.9405 20.5994 76.9102 19.4875 76.7683 18.4199C76.9152 17.9396 77.0241 17.505 77.2408 17.1184C77.5691 16.4441 77.8595 15.7225 78.3298 15.192C78.6559 15.0482 78.9078 15.4857 79.2307 15.3883C79.4496 15.3448 79.3429 14.9574 79.4864 14.7641C79.6311 14.5206 79.8478 14.3804 80.1013 14.3332C80.7525 14.2395 81.4345 14.4395 81.9372 15.0231C82.226 15.3639 82.512 15.7542 82.908 15.9003C82.9426 15.9003 83.0521 15.9505 83.0521 15.8538C82.3002 14.6859 81.3647 13.9053 80.3224 13.6087L80.2872 13.4656C80.2498 13.2184 80.3967 13.0753 80.5386 12.8849C80.8669 12.5477 81.2646 12.3603 81.6952 12.457C82.5263 12.7034 83.1709 13.484 83.7781 14.3583C83.8507 14.455 83.9953 14.4085 84.1042 14.3148C84.1389 14.2174 84.0668 14.1178 83.997 14.0211C83.3502 13.2907 82.7776 12.3692 82.0214 12.0261C81.77 11.9265 81.5159 12.0696 81.302 11.8734C81.2646 11.8262 81.2299 11.6794 81.302 11.6329C81.6276 11.2957 81.9185 10.8146 82.2793 10.5778C82.8216 10.1934 83.6505 10.2465 84.1554 10.5896C84.2973 10.6368 84.4414 10.977 84.586 10.7837C84.6229 10.687 84.6229 10.5431 84.586 10.4465C84.2274 10.0562 83.7599 9.90936 83.3271 9.85624C82.6055 9.94699 82.028 10.428 81.3762 10.6678C80.725 11.6299 80.0012 12.398 79.2774 13.1188C78.5162 13.743 77.579 14.0241 76.6776 13.7275C76.1375 13.4338 75.6001 12.7536 75.5303 11.9295C75.5325 11.4956 75.6067 11.0618 75.8608 10.7239C75.8977 10.4339 75.8977 10.0968 76.0093 9.80607C76.2634 9.03212 76.9498 8.94137 77.562 8.99449C77.7781 8.99449 77.9574 9.23796 78.1741 9.14426L78.1785 8.46696L78.1411 8.41679C77.5273 8.75397 76.6985 8.69789 76.1958 8.11429C75.907 7.87082 75.7283 7.48347 75.6953 6.99947C75.5886 6.61212 75.6975 6.17534 75.8443 5.79169C76.1699 5.2103 76.5703 4.72999 77.1104 4.73294C78.1554 4.74253 78.9441 5.51944 79.8076 6.1569C79.9545 6.20633 80.0964 6.30372 80.2405 6.1569L80.3175 5.48255L80.2454 5.33868C79.7405 4.89821 79.2026 4.50791 78.6625 4.16483C77.6901 3.72141 76.7914 3.23151 75.7464 3.08174ZM8.1696 2.84715C7.01955 1.67626 5.3998 1.18341 3.9544 1.80169C2.43695 2.4694 1.2033 4.49245 1.04985 6.66528C1.04985 6.76562 0.942596 6.81211 1.01245 6.90876C0.900796 7.77715 0.935996 8.60128 0.931046 9.47262C1.07075 10.9239 1.35235 12.232 1.7456 13.4936C2.67235 16.4972 4.64575 18.8324 6.5845 20.8304C8.2367 22.2949 9.89165 23.7085 11.6533 24.7363C12.8754 25.5663 14.1717 26.1566 15.5055 26.5528C16.6946 26.8995 17.8859 26.3285 18.9661 26.9652C20.0809 27.5053 20.6513 29.0569 21.0792 30.365C21.5797 31.8701 21.7892 33.5154 22.0334 35.1607C22.2826 36.7123 22.7803 38.1171 23.4601 39.4289C23.8187 40.2058 24.3561 40.8366 24.8219 41.5206C25.5754 42.7815 26.6903 43.5621 27.1886 45.017C27.4377 45.7445 27.5774 46.9087 27.2139 47.6303C27.1418 47.8738 26.9603 48.014 26.9235 48.2574L27.6049 49.1789L28.3221 50.3963C28.7874 51.4137 29.0344 52.5286 29.1015 53.7371C29.1367 54.4173 29.1339 55.1419 29.1669 55.8192C29.2736 55.9158 29.3462 55.769 29.4551 55.7255C29.7439 55.4385 30.0673 55.7284 30.3192 55.9254C30.57 56.4559 31.0006 56.9436 30.9984 57.6703C30.9962 58.2982 30.6701 58.732 30.3071 59.1164L30.2702 59.2131C30.9148 60.2334 31.4522 61.3483 32.0968 62.3192C32.814 63.7771 33.5653 65.2321 34.2803 66.69C34.9249 67.8077 35.8489 68.8916 36.747 69.4316H40.8737L40.9782 69.2066C41.0876 68.9166 40.9804 68.5758 40.9804 68.2386C40.9457 67.9951 40.8038 67.7516 40.7686 67.4617C40.8781 67.2212 41.1316 67.1245 41.2763 66.9342C41.2411 66.3033 40.5195 66.4435 40.5228 65.7662C40.4524 65.2822 40.2016 64.8454 39.9145 64.5547C39.7352 64.3585 39.519 64.3548 39.4118 64.1143C39.629 63.7771 39.9145 64.1645 40.168 64.2176C40.564 64.6049 41.0293 65.0919 40.9551 65.8193C41.2064 66.1093 41.5304 66.1595 41.7812 66.4996C41.9605 66.5033 42.0353 66.1661 42.1095 65.9219C41.9302 65.5818 41.6415 65.4822 41.3527 65.435C41.1014 65.432 41.0667 65.0417 41.0315 64.8049C40.7455 64.2205 40.2775 63.8273 39.882 63.4399C39.486 63.147 38.8744 63.2872 38.4762 63.4805C38.2947 63.6679 38.1479 64.1519 37.8597 64.1025C37.3592 63.2776 36.8565 62.4041 36.4654 61.5298C35.9974 60.6555 35.7856 59.6373 35.4298 58.7165C35.0739 57.505 35.0431 56.1003 34.7593 54.8423C34.6895 54.4048 34.5454 53.968 34.2588 53.6773L32.644 51.9228C32.0319 51.2426 31.5314 50.3683 31.2822 49.4003C31.104 48.9133 31.2151 48.2855 31.1821 47.7048C31.2547 47.2208 31.2916 46.787 31.4758 46.3532C31.8757 45.3881 32.6693 44.9108 33.5004 44.9668C33.9332 44.9203 34.2566 45.2605 34.6152 45.4575C35.1922 45.847 35.6206 46.4808 35.9792 47.209C36.0881 46.8217 36.0183 46.3841 35.9836 45.9975C35.7697 45.076 35.5579 44.2054 35.4529 43.2374C35.4226 42.2229 35.6762 41.2549 36.186 40.5334C36.4748 40.2936 36.7283 40.0058 37.0517 40.0058C37.3405 40.059 37.704 40.0125 37.8085 40.3991C37.6639 40.7363 37.231 40.4434 36.9775 40.6337C36.2559 41.1148 36.1442 42.2259 36.1745 43.1939C36.2091 43.6307 36.2443 44.1117 36.5677 44.2615C37.7546 45.0421 39.051 45.4855 40.3853 45.8352C41.2482 45.9879 42.1491 45.9939 43.0148 46.1908C44.0967 46.3473 45.1417 46.5465 46.2241 46.6033C47.197 46.6092 48.1348 46.5184 49.0725 46.3812C50.227 46.1938 51.2769 45.6198 52.394 45.2915C53.1524 45.1513 53.874 45.0104 54.6655 44.9705C55.5334 44.9263 56.3622 45.0295 57.2279 44.9358C57.8071 44.8451 58.3824 44.9949 58.994 44.9484L59.0336 44.8547L58.78 44.8517C58.6733 44.9012 58.5639 44.7551 58.4544 44.8016L57.9864 44.7514L57.663 44.6016L56.9766 44.6451C56.4739 44.592 55.9288 44.5426 55.4641 44.2954C55.3194 44.1988 55.1401 44.3427 55.029 44.4393C54.165 44.7234 53.2272 44.474 52.5078 43.8896L52.147 43.9833C51.6421 44.4614 51.0976 44.9417 50.4833 45.0354C49.9058 44.9823 49.259 45.0266 48.7887 44.6363C47.9252 44.7765 46.9501 44.8672 46.1938 44.2799C46.0167 44.1803 45.9078 43.793 45.6587 43.9369C44.611 43.8336 43.7848 43.0065 43.0308 42.1292C42.7794 41.9824 42.4186 42.0289 42.2393 41.7389C42.0606 41.6386 42.2767 41.4955 42.2047 41.3486C41.3764 40.9583 40.5497 39.9845 40.1218 38.9161C40.0866 38.8195 40.1587 38.6763 40.0894 38.576C39.6213 38.089 39.1907 37.5054 38.9047 36.778C39.0488 36.4437 39.4096 36.637 39.6257 36.4467C39.5911 36.1567 39.4118 35.9133 39.3051 35.6698C39.2699 35.5259 39.1258 35.3761 39.2699 35.2323C39.7401 35.1887 40.173 35.2389 40.6405 35.2419C40.7131 35.292 40.7499 35.1482 40.7873 35.0515C40.822 35.0043 40.8968 34.811 41.004 34.9076C41.5788 35.0574 42.1931 35.1541 42.6958 35.548C42.9472 35.7915 43.1633 36.1316 43.4125 36.2312C44.0989 36.2844 44.6742 36.6747 45.3232 36.9218C45.8979 37.1653 46.4034 37.6552 46.9781 37.9953C47.1228 38.1451 47.3367 38.0957 47.4808 38.2919C48.1304 38.1517 48.8888 38.2049 49.4988 38.4985C50.0433 38.3074 50.5113 38.0706 50.9464 37.6862C51.4513 37.1085 52.031 36.7278 52.6101 36.294C52.7894 36.1036 52.757 35.7163 53.0105 35.523C53.5182 34.9954 54.1325 34.6612 54.6721 34.2768L55.1445 33.7965C55.3266 33.6061 55.5053 33.4121 55.6522 33.1716C55.5081 32.9753 55.2936 32.7348 55.1121 32.5415V32.4441C55.4404 31.6731 56.0548 31.4326 56.5971 31.0489L56.525 30.9051C55.6637 30.2218 54.8002 29.2472 54.2651 28.0328C53.7646 26.8213 53.3735 25.5634 53.4505 24.0619C53.5248 23.6274 53.4901 23.1441 53.6716 22.7568C53.709 22.5664 53.8179 22.3259 53.7459 22.1761C53.5298 22.1289 53.2388 22.4166 53.1337 22.0795C53.1689 21.7386 53.3158 21.4014 53.3202 20.9646C52.922 21.2052 52.4869 21.3955 52.0915 21.4892C51.9468 21.5357 51.7307 21.6331 51.6586 21.4863C51.6608 21.0989 51.8429 20.8082 51.9864 20.5183C51.9864 20.471 51.9892 20.3279 51.9166 20.3279C51.4441 20.5647 50.9018 20.7551 50.3991 20.896C48.7029 21.4671 46.8615 21.7423 45.0207 21.923L40.6223 21.9415C40.5497 21.9887 40.5151 21.8448 40.4777 21.9415L38.8904 21.8825C37.0517 21.9171 35.2483 21.611 33.5191 21.2612L32.7997 21.1144C32.0434 21.0583 31.357 20.9086 30.6376 20.7588C29.195 20.5087 27.7171 20.3028 26.2019 20.3405L24.0745 20.5183L22.9574 20.7057C21.2959 21.0797 19.8153 21.9415 18.333 22.9936C17.3925 23.3721 16.3827 23.6591 15.3003 23.4562C14.7954 23.3559 14.3274 23.2563 13.8599 23.0098C12.1675 22.4196 10.5478 21.5357 9.00285 20.4622C8.13935 19.8749 7.3127 19.1445 6.4866 18.4104C5.55325 17.39 4.6177 16.4655 3.7938 15.198C2.8258 13.6464 2.1834 11.9479 1.904 9.96252C1.6202 8.5548 1.6994 6.86228 2.0646 5.51357C2.6487 3.92139 3.7707 2.62286 5.10445 2.53506C6.29575 2.54097 7.3391 3.13416 8.0904 4.34563C8.48585 5.0731 8.62555 5.9474 8.658 6.86523C8.6558 7.63992 8.40005 8.41387 8.614 9.14135C8.97205 9.52869 9.2234 10.0156 9.4753 10.4996C9.5446 10.6929 9.5798 10.9836 9.7613 11.0331C10.05 10.9394 10.1221 10.4554 10.2315 10.1189C10.3432 9.49107 10.671 8.71711 10.3476 8.03907C10.0616 7.50564 9.703 6.97147 9.5985 6.34065C9.4214 5.32322 9.1002 4.40244 8.5997 3.52815L8.1696 2.84715ZM74.8109 2.49456C73.9127 1.57083 72.5047 2.04155 71.4603 2.226C70.6611 2.46357 69.9049 2.79706 69.1811 3.27515C67.629 4.28004 66.0719 5.38232 64.7684 7.11542V7.1619C65.1639 7.21207 65.5247 7.11837 65.8855 6.92801C65.9207 6.88079 66.067 6.83431 66.1044 6.93096C66.1368 7.65549 65.8811 8.18597 65.7716 8.81679C65.7716 9.01009 65.6622 9.20045 65.7694 9.34727L67.0355 8.48256C67.1422 8.43903 67.2517 8.19556 67.3958 8.38886C67.4684 8.53864 67.4656 8.68251 67.3936 8.82638C67.2121 9.30669 67.1747 9.84086 67.063 10.3713C67.0262 10.6119 66.9915 10.8553 67.0608 11.0494L67.7478 10.5683C68.0013 10.4746 68.1476 10.0408 68.3968 10.1404C68.5409 10.3839 68.3946 10.6716 68.4666 10.9616L68.3176 12.0727C68.7504 11.8853 69.1134 11.5489 69.4742 11.1615C69.549 11.1143 69.6557 11.1615 69.6909 11.2611C69.5837 11.6957 69.472 12.179 69.5419 12.663L69.5793 12.8068C69.7954 12.5663 70.0121 12.2291 70.2657 11.9886C70.808 11.4611 71.243 10.8369 71.8249 10.3094L71.9344 9.68149C71.9696 9.53467 72.0438 9.29415 72.0086 9.09789C71.1083 8.95107 70.4263 7.73369 70.0704 6.7657C69.9632 6.52222 69.8911 6.23153 69.6766 6.08471C69.6766 6.03822 69.6766 5.98805 69.714 5.8914L70.2563 5.41035C71.0153 4.49917 71.9927 3.73111 73.1471 4.12731C73.5426 4.32136 74.0431 4.61795 74.1872 5.24509C74.1498 5.38896 74.0409 5.43839 73.9336 5.38896C73.2868 4.75518 72.2044 4.8452 71.5901 5.37346C71.4828 5.47012 71.3013 5.56382 71.3013 5.7099C71.6247 6.05077 71.8739 6.53476 72.1252 6.97449C72.3392 7.55515 72.805 7.75214 73.3121 7.65844L73.7824 7.17739L73.7125 6.55026C73.8616 5.92239 74.3665 5.63243 74.7993 5.49151C75.0182 4.72051 75.1673 3.84916 75.0622 2.97856L74.8109 2.49456ZM87.5929 71.5263H3.40768V69.4317H5.85573C5.96518 69.335 5.96298 69.0067 5.92833 68.91C5.46248 67.9391 5.36018 66.7276 5.39978 65.5199C5.40473 64.7452 5.51363 64.0214 5.58843 63.2969L5.77433 61.8449L6.03778 59.4315C6.07683 58.6074 6.15163 57.8364 6.19123 57.0123C6.16098 55.7071 6.23743 54.4484 6.27703 53.1403C6.35843 51.402 7.19168 50.0526 8.09698 48.8477C8.67668 48.273 9.32843 47.8893 9.97743 47.558C10.7364 47.271 11.3882 46.6963 12.0047 46.0721C12.91 44.674 13.0613 42.7911 13.322 41.0019L13.4782 38.0515L13.5546 36.8902C13.6338 35.008 14.0364 33.2653 14.7652 31.6732C15.0187 31.1456 15.4169 30.6646 15.7777 30.2308C15.7821 29.7003 15.7123 29.1196 15.8938 28.6356C15.9312 28.3951 16.1853 28.2047 16.0406 27.9613C15.5005 27.7112 14.8884 27.6145 14.3483 27.3681C12.8358 26.7778 11.3601 26.088 9.95653 25.1111C8.23283 23.7934 6.54268 22.3791 4.92733 20.7212C3.56113 19.3098 2.30658 17.4616 1.41283 15.5699C0.805634 14.1149 0.305134 12.5633 0.132984 10.8708C-0.111216 9.07869 0.00263351 7.18992 0.297984 5.50108C0.516884 4.63343 0.845234 3.81225 1.24563 3.04125L1.96943 1.9825C2.40448 1.54868 2.83953 1.02115 3.38183 0.830795C3.77783 0.636753 4.13808 0.399918 4.53628 0.402869C4.96913 0.35565 5.43938 0.265638 5.83483 0.412461C6.30288 0.464845 6.73573 0.661838 7.16858 0.855142C7.59923 0.955483 7.96003 1.34873 8.35548 1.58926C9.36088 2.70998 10.1474 4.16788 10.5384 5.76669C10.7155 6.73395 11.4344 7.32124 11.6093 8.24202C11.7512 8.82267 11.5697 9.35389 11.4228 9.88437C11.023 10.8494 10.7667 11.9104 10.1848 12.7286C10.0407 12.8754 9.89603 12.9721 9.75193 12.8725C9.10513 12.4792 8.89338 11.4611 8.49958 10.7365C7.92758 9.85929 7.56898 8.79464 7.64598 7.58685C7.72023 7.05268 7.79448 6.42555 7.72463 5.89138C7.58273 5.21408 7.18948 4.53309 6.68458 4.19001C6.29133 3.89932 5.78643 3.79676 5.28098 3.74659C4.45268 3.83734 3.69148 4.36487 3.21903 5.32918C2.85603 6.09723 2.77903 7.01874 2.70478 7.986C2.62558 9.91905 3.12388 11.5171 3.76573 13.0724C4.37348 14.3805 5.23698 15.4511 6.09773 16.4752C6.60098 16.9119 7.06628 17.4491 7.57118 17.8394C8.68383 18.9106 9.90813 19.6942 11.1297 20.3811C12.2819 21.0643 13.5409 21.4612 14.7652 21.9541C15.5236 22.2012 16.4592 22.3009 17.2182 22.0197C18.5915 21.3985 19.8923 20.4903 21.2656 19.8691L22.9618 19.3009C24.4424 19.0198 26.0297 18.8383 27.6143 18.9948L28.6967 19.1475C29.8489 19.3504 31.0402 19.5038 32.2299 19.6566C33.0928 19.8565 33.9563 19.9591 34.822 20.159C36.4445 20.5559 38.1039 20.3774 39.7984 20.4836C40.6988 20.6371 41.5997 20.4962 42.5028 20.5058L46.3984 20.3368C48.4186 20.159 50.3667 19.6381 52.1377 18.6354C52.7872 18.3012 53.4016 17.7737 54.0533 17.2963C54.9564 16.4279 55.8639 15.7137 56.7346 14.7015C57.5282 13.7873 58.3637 12.9219 59.1595 12.0572C60.8238 10.1345 62.3132 8.01773 64.0496 6.14445C64.9917 5.18235 65.8624 4.07417 66.9118 3.40646L68.4644 2.30419C69.3323 1.77666 70.2701 1.34873 71.2106 1.01746C72.6164 0.733405 74.35 0.458942 75.5 1.72354C75.6419 2.06366 75.9675 1.96996 76.2189 2.02013C76.7942 2.11974 77.3359 2.3669 77.8738 2.61037C78.8836 3.00657 79.8544 3.64035 80.7157 4.46742C81.3647 4.52055 81.9394 5.25097 82.1539 6.02566C82.5494 6.27209 82.908 6.6159 83.2688 6.95308L83.7687 7.58685C84.3462 7.8805 84.9584 8.22358 85.4589 8.80718L86.0336 9.72869C86.104 10.2156 86.4615 10.4621 86.6782 10.8022C86.8201 11.3334 87.1787 11.7237 87.1067 12.3508C87.0297 12.9787 86.813 13.6058 86.3757 14.0367L85.7982 14.6144C85.3956 15.6289 84.9606 16.6404 84.3066 17.5088C84.0553 17.9397 83.585 17.936 83.2242 17.9832C83.0081 17.8866 82.7567 17.9301 82.5752 18.0769C82.177 18.7011 81.7046 19.3755 81.055 19.3696L81.0182 19.3223C80.9505 18.7889 80.9527 18.161 81.1342 17.677C80.9555 17.3871 80.7014 17.7737 80.4478 17.7707C80.3037 17.6741 80.378 17.3804 80.1618 17.3804C80.0892 17.3804 79.9803 17.4771 79.9451 17.3804C79.9105 16.9931 79.5843 16.8935 79.4078 16.6965H79.3704L79.3286 18.0983C79.3264 18.9232 79.3935 19.7473 79.4287 20.5685C79.4287 20.615 79.4287 20.6651 79.3913 20.7116C79.0679 20.5685 78.7445 20.2719 78.4557 20.1745V20.2247C78.6697 20.7588 79.0657 20.9994 79.3891 21.3889C79.4958 21.2952 79.5706 21.0554 79.6074 20.8614C79.7169 20.4246 79.7196 19.8934 79.8659 19.4596C80.1151 19.6064 80.3318 19.9465 80.5457 20.2372C80.6898 20.7212 80.8339 21.2082 80.8669 21.7888C80.8647 22.126 80.648 22.5104 80.862 22.8505C81.0039 23.094 81.1485 23.3876 81.0737 23.7248C80.9296 24.4021 80.7459 25.1731 80.2009 25.4601C79.6586 25.8445 78.9397 25.6446 78.3628 25.4948C77.9668 25.348 77.5361 25.0543 77.1385 25.2949C76.9916 25.3421 76.8849 25.4387 76.8475 25.5819C76.8123 25.8224 76.9196 26.0164 76.9542 26.2097C77.5224 28.1487 77.8766 30.1371 78.1928 32.2162C78.2599 32.9437 78.2577 33.7648 78.2181 34.5395C78.1807 35.267 77.997 35.8941 77.9228 36.6186C77.1203 39.2725 76.2095 41.8327 74.7922 44.0461C74.6459 44.3833 74.2851 44.6238 74.3929 45.0104C74.7482 46.1252 74.9973 47.2401 75.2811 48.3047L75.8119 50.6303C76.1655 52.4224 76.4471 54.2145 76.8382 55.9601C77.3711 58.0924 77.9739 60.1774 79.0866 61.9732C79.41 62.5096 79.9127 62.7066 80.3829 62.5133C81.2134 62.3259 82.0049 62.5753 82.6148 63.3057C83.2242 63.8428 83.5476 64.5703 84.1202 65.1546C84.5184 65.3479 84.7697 65.8349 84.9837 66.3189C85.7031 66.7586 85.9869 67.827 85.9473 68.8444C85.9104 68.9883 85.8378 69.1816 85.9077 69.3756L85.9473 69.4317H87.5929V71.5263Z" fill="white"/>
<mask id="mask0_1:1007" style="mask-type:alpha" maskUnits="userSpaceOnUse" x="71" y="75" width="14" height="15">
<path fill-rule="evenodd" clip-rule="evenodd" d="M71.4877 75.8645H84.4887V90.0001H71.4877V75.8645Z" fill="white"/>
</mask>
<g mask="url(#mask0_1:1007)">
<path fill-rule="evenodd" clip-rule="evenodd" d="M77.8903 78.2371C76.9498 78.2807 76.0841 78.4681 75.3256 79.0428C74.2036 79.9046 73.4034 81.4495 73.5079 83.2387C73.608 85.0773 74.7927 86.5854 76.017 87.2221C77.0224 87.5689 78.1768 87.819 79.2587 87.4877C79.8384 87.2973 80.4505 87.107 80.9576 86.6289C81.8954 85.8608 82.5526 84.5594 82.5218 83.0609C82.524 81.9461 82.2776 80.9316 81.6677 80.1038C81.3817 79.8109 81.1303 79.3733 80.8064 79.1771C79.9451 78.4931 78.8979 78.3434 77.8903 78.2371ZM78.9078 75.9235C80.313 76.1766 81.6468 76.8133 82.7572 78.0779C83.332 78.8083 83.7599 79.5395 84.1185 80.4101C84.4743 81.5279 84.6146 82.9297 84.3555 84.1847C84.2092 84.9587 84.0277 85.6832 83.6999 86.3575C82.936 87.9468 81.6699 88.9553 80.4417 89.5301C79.6101 89.8104 78.7444 90.048 77.8435 89.9919C75.4263 90.1233 73.196 88.5554 72.0185 85.7924C71.8023 85.3054 71.6973 84.8214 71.59 84.2909L71.4877 83.0795C71.4971 80.613 72.6213 78.3966 74.213 77.1011C75.2277 76.333 76.347 75.9051 77.574 75.8645L78.9078 75.9235Z" fill="white"/>
</g>
<path fill-rule="evenodd" clip-rule="evenodd" d="M6.95367 75.856V89.8587H16.098V87.5479H8.90617V75.856H6.95367Z" fill="white"/>
<path fill-rule="evenodd" clip-rule="evenodd" d="M38.3251 75.8753V89.8559H49.692V87.5488H40.2034V84.1084H47.767V81.7386H40.2034V78.3263L49.6502 78.3196V75.8694L38.3251 75.8753Z" fill="white"/>
</svg>
